<?xml version="1.0" encoding="utf-8" ?><svg xmlns="http://www.w3.org/2000/svg" xmlns:xlink="http://www.w3.org/1999/xlink" width="2560" height="1792" viewBox="0 0 2560 1792"><path fill="#141413" d="M0 0L2560 0L2560 1792L0 1792L0 0Z"/><path fill="#DC6038" d="M1336.16 1260.86C1329.83 1261.77 1309.37 1261.31 1301.79 1261.3L1231.97 1261.2L993.243 1261.17L137.363 1260.54C132.167 1260.54 126.873 1260.41 121.355 1260.44C112.925 1260.87 103.873 1258.64 104.532 1248.25C105.451 1241.05 116.368 1238.75 121.887 1238.77C158.391 1238.88 194.875 1238.9 231.369 1238.81L441.304 1237.84L611.404 1237.79C638.783 1237.78 674.954 1236.72 701.512 1238.14L1856.07 1238.04L2241.99 1238L2369.66 1237.98C2382.11 1237.98 2442.8 1236.37 2450.99 1240.61C2455.51 1245.31 2458.97 1253.12 2452.09 1256.57C2436.92 1264.19 2413.51 1259.1 2396.51 1260.36C2392.58 1260.64 2386.68 1260.47 2383.51 1260.19C2350.97 1262.14 2302.48 1260.73 2268.94 1260.74L2053.2 1260.76L1336.16 1260.86Z"/><path fill="#4F3F3D" d="M1336.16 1260.86C1329.83 1261.77 1309.37 1261.31 1301.79 1261.3L1231.97 1261.2L993.243 1261.17L137.363 1260.54C132.167 1260.54 126.873 1260.41 121.355 1260.44C112.925 1260.87 103.873 1258.64 104.532 1248.25C105.451 1241.05 116.368 1238.75 121.887 1238.77C158.391 1238.88 194.875 1238.9 231.369 1238.81L441.304 1237.84L611.404 1237.79C638.783 1237.78 674.954 1236.72 701.512 1238.14C689.005 1239.14 673.15 1238.82 660.422 1238.87L582.861 1238.88L370.722 1240.06L301.682 1240.01C290.938 1239.99 272.094 1239.49 261.79 1240.67L262.132 1241.75C277.382 1241.31 302.323 1240.88 317.363 1241.83C315.086 1242.3 312.812 1242.79 310.541 1243.29C308.632 1247.51 306.431 1251.49 304.494 1256C306.678 1256.02 322.596 1256.03 323.632 1256.28C316.69 1257.2 300.12 1257.18 292.466 1257.35C309.814 1259.9 340.734 1256.56 359.242 1256.52C359.719 1256.52 362.47 1258.67 363.14 1259.26C377.011 1257.75 392.049 1258.85 406.009 1258.47C437.197 1257.64 468.572 1259.42 499.544 1259.52L803.687 1260.06L1197.13 1260.27L1294.18 1260.32C1299.86 1260.32 1331.95 1259.96 1336.16 1260.86Z"/><defs><linearGradient id="gradient_0" gradientUnits="userSpaceOnUse" x1="110.57481" y1="1235.5415" x2="307.57877" y2="1262.6171"><stop offset="0" stop-color="#0E1013"/><stop offset="1" stop-color="#533528"/></linearGradient></defs><path fill="url(#gradient_0)" d="M262.132 1241.75C277.382 1241.31 302.323 1240.88 317.363 1241.83C315.086 1242.3 312.812 1242.79 310.541 1243.29C308.632 1247.51 306.431 1251.49 304.494 1256C306.678 1256.02 322.596 1256.03 323.632 1256.28C316.69 1257.2 300.12 1257.18 292.466 1257.35C250.133 1258.01 207.795 1258.22 165.457 1257.98C150.282 1257.82 134.746 1257.76 119.599 1257.64C104.215 1257.52 104.934 1243.56 115.039 1242.36C124.699 1241.21 138.672 1241.79 148.55 1241.83L222.002 1242.2C234.029 1242.27 250.57 1243.18 262.132 1241.75Z"/><path fill="#D97757" d="M2383.51 1260.19C2375.83 1259.28 2361.07 1259.63 2352.76 1259.62L2296.35 1259.63L2109.22 1259.55C2083.25 1259.54 2037.53 1260.94 2013.09 1258.89C2017.64 1256.71 2068.63 1257.47 2077.92 1257.48L2245.16 1257.48L2296.68 1257.45C2301.48 1257.45 2316.74 1258.81 2319.82 1256.39C2318.47 1246.25 2324.76 1251.66 2327.24 1243.35C2319.4 1240.07 2128.67 1243.07 2105.24 1242.07C2097.58 1241.75 2063.69 1243.07 2055.63 1241.61C2070.64 1240.95 2089.15 1241.44 2104.36 1241.44L2194.05 1241.37L2450.99 1240.61C2455.51 1245.31 2458.97 1253.12 2452.09 1256.57C2436.92 1264.19 2413.51 1259.1 2396.51 1260.36C2392.58 1260.64 2386.68 1260.47 2383.51 1260.19Z"/><path fill="#5C392B" d="M317.363 1241.83C323.417 1241.36 376.917 1240.98 383.31 1241.8L383.265 1242.67L377.808 1243.41L379.952 1245.84C376.066 1248.81 375.844 1252.09 373.653 1257.15C369.532 1256.48 366.839 1257.24 363.14 1259.26C362.47 1258.67 359.719 1256.52 359.242 1256.52C340.734 1256.56 309.814 1259.9 292.466 1257.35C300.12 1257.18 316.69 1257.2 323.632 1256.28C322.596 1256.03 306.678 1256.02 304.494 1256C306.431 1251.49 308.632 1247.51 310.541 1243.29C312.812 1242.79 315.086 1242.3 317.363 1241.83Z"/><path fill="#D97757" d="M2316.86 1253.59C2317.03 1253.67 2317.19 1253.74 2317.36 1253.82C2317.44 1254.18 2317.43 1253.92 2317.24 1254.71C2317.06 1254.53 2316.89 1254.36 2316.71 1254.18C2316.67 1253.82 2316.65 1254.02 2316.86 1253.59Z"/><path fill="#D97757" d="M212.118 703.091C240.062 724.891 266.95 748.102 294.448 770.468C307.342 780.957 320.218 792.516 334.404 801.231C337.999 803.439 341.744 805.809 346.154 805.277C350.145 804.795 353.23 802.108 355.401 798.872C374.348 770.641 378.359 646.747 387.073 604.903C390.945 642.821 395.438 680.672 400.551 718.442C403.333 739.929 405.478 761.886 410.445 782.994C415.029 802.475 424.405 813.196 442.842 798.636C482.185 767.564 520.534 733.419 560.551 703.325L559.739 704.562C552.217 715.888 536.936 732.374 527.616 742.905L484.075 792.718C475.4 802.651 466.572 812.403 459.155 823.126C453.011 832.007 458.127 840.017 466.903 844.171C499.939 859.809 540.553 859.847 576.166 863.779C601.593 866.587 625.946 868.297 650.74 871.125C650.404 872.131 650.083 873.142 649.778 874.158C643.882 874.478 637.354 875.076 631.412 875.778C584.217 881.354 536.388 885.515 489.575 893.601C479.005 895.211 445.511 903.815 458.555 920.715C491.06 962.831 530.131 1002.36 563.156 1043.9C538.914 1027.72 442.957 940.042 428.48 937.636C425.204 937.091 421.984 938.446 419.516 940.534C416.047 943.466 414.076 947.454 412.687 951.704C405.814 972.732 403.842 996.839 400.955 1018.75C395.926 1058.04 391.318 1097.37 387.132 1136.76C383.573 1121.13 382.398 1101.06 380.396 1084.86C375.485 1045.11 371.837 1005.2 363.09 966.014C359.637 950.546 354.259 928.473 333.849 942.161C322.67 949.657 312.593 959.022 302.298 967.77L248.195 1013.58C237.906 1022.31 224.01 1034.73 213.266 1042.15L211.986 1043.03C225.738 1023.74 313.505 925.839 315.731 916.515C316.376 913.773 315.886 910.888 314.373 908.513C299.385 884.719 161.53 880.356 132.362 874.714C131.947 874.595 131.532 874.475 131.118 874.356C127.788 874.295 122.402 874.568 119.957 872.341C122.428 870.435 126 870.734 129.285 870.583L130.848 870.293C167.813 863.69 295.092 863.666 313.543 837.708C315.635 834.764 316.325 831.615 315.679 828.069C313.333 815.206 226.223 724.461 212.118 703.091Z"/><path fill="#DC6038" d="M1465.68 973.449C1479.03 972.374 1496.64 972.872 1510.28 973.018C1546.9 973.411 1585.14 972.128 1621.59 973.231C1651.91 974.148 1660.73 1018.02 1624.61 1028.03C1601.72 1028.05 1471.18 1030.91 1458.43 1025.31C1451.7 1022.36 1446.56 1015.89 1444.18 1009.05C1441.65 1001.77 1442.18 994.19 1445.9 987.419C1450.26 979.502 1457.34 975.808 1465.68 973.449Z"/><path fill="#141413" d="M1526.25 975.501C1556.59 974.946 1592.72 974.671 1623.41 975.779C1650.19 976.746 1654.7 1021.14 1624.69 1024.96C1605.92 1027.34 1583.15 1025.81 1563.5 1025.66L1501.68 1025.81C1478.72 1025.86 1446.14 1031.27 1444.63 998.301C1444.15 987.834 1455.44 978.056 1464.97 976.784C1484.54 974.174 1506.32 975.414 1526.25 975.501Z"/><path fill="#FAF9F5" d="M1561.2 991.992C1563.54 992.007 1569.28 991.388 1570.99 992.919C1576.56 997.892 1568.26 999.631 1571.52 1003.91C1572.51 1005.21 1574.1 1007.34 1572.14 1008.13L1571.06 1008.6C1570.12 1007.11 1567.44 1001.32 1565.42 1002.07C1563.77 1004.11 1565.83 1006.15 1563.56 1008.21C1559.8 1008.8 1561.26 994.448 1561.2 991.992Z"/><path fill="#141413" d="M1565.48 994.657C1566.55 993.921 1567.99 994.075 1568.88 995.02C1569.77 995.965 1569.83 997.417 1569.03 998.436C1568.39 999.246 1567.34 999.608 1566.34 999.36C1565.34 999.112 1564.57 998.3 1564.39 997.286C1564.2 996.271 1564.63 995.243 1565.48 994.657Z"/><path fill="#FAF9F5" d="M1591.15 991.914C1595.07 991.966 1601.89 990.867 1603.17 996.263C1604.19 1000.57 1598.65 1001.98 1595.68 1002.88C1592.75 1003.9 1595.68 1008.73 1591.91 1008.2C1591.2 1007.03 1591.18 1006.41 1591.17 1005L1591.15 991.914Z"/><path fill="#141413" d="M1595.1 994.611C1596.19 993.73 1597.77 993.798 1598.78 994.77C1599.8 995.742 1599.93 997.316 1599.09 998.443C1598.45 999.312 1597.36 999.73 1596.3 999.516C1595.24 999.302 1594.4 998.495 1594.14 997.444C1593.89 996.394 1594.26 995.29 1595.1 994.611Z"/><path fill="#FAF9F5" d="M1500.24 991.892C1503.86 991.887 1511.07 990.73 1512.17 995.739C1513.23 1000.52 1508.11 1001.82 1504.67 1002.82C1502.51 1003.44 1502.89 1011.21 1500.73 1007.52C1499.69 1005.73 1500.24 994.804 1500.24 991.892Z"/><path fill="#141413" d="M1504.04 994.653C1504.87 993.946 1506.04 993.765 1507.05 994.184C1508.07 994.604 1508.76 995.554 1508.86 996.648C1508.95 997.741 1508.42 998.796 1507.5 999.381C1506.19 1000.2 1504.47 999.876 1503.56 998.631C1502.65 997.386 1502.86 995.648 1504.04 994.653Z"/><path fill="#FAF9F5" d="M1532.32 991.664C1534.77 991.781 1537.34 991.484 1539.59 992.632C1540.61 993.152 1542.22 996.205 1541.43 996.498C1539.11 997.354 1537.5 993.177 1534.31 994.244C1533.21 994.612 1534.18 993.815 1533.25 995.101C1532.56 1001.26 1546.87 996.637 1539.92 1008.45C1536.38 1008.14 1530.76 1008.51 1529.84 1003.93C1532.33 1002.28 1535.82 1006.89 1537.21 1005.53C1544.08 998.796 1524.68 1004.9 1532.32 991.664Z"/><path fill="#FAF9F5" d="M1515.96 991.931L1521.5 991.928C1523.08 991.923 1524.63 991.612 1525.74 992.927C1525.93 994.371 1523.75 994.546 1523 994.37C1518.81 993.376 1517.04 997.678 1521.53 998.645C1522.45 998.844 1524.84 998.801 1524.33 1000.3C1521.12 1001.42 1521.27 1000.79 1517.8 1002.52C1522.2 1009.14 1524.72 1003.65 1526.7 1007.01C1526.65 1009.16 1516.49 1008.14 1516.39 1007.54C1515.58 1002.89 1515.97 996.84 1515.96 991.931Z"/><path fill="#FAF9F5" d="M1547.55 991.661C1551.67 991.795 1553.67 991.443 1556.57 994.669C1557.45 1000.28 1550.62 991.652 1549.69 994.481C1548.28 998.767 1547.3 1003.37 1551.37 1006.2C1559.47 1000.26 1557.31 1006.33 1554.51 1007.48C1542.76 1012.28 1545.4 996.438 1547.55 991.661Z"/><path fill="#FAF9F5" d="M1575.83 992.287C1578.73 992.091 1584.21 991.258 1586.57 992.796L1586.53 992.398C1587.14 993.696 1584.1 994.522 1583.99 995.046C1583.62 996.821 1582.55 1004.72 1584.82 1005.67C1586.44 1006.35 1586.5 1006.55 1586.38 1008.13C1584.25 1008.15 1578.31 1008.47 1576.69 1007.49L1576.55 1007.52C1577.1 1006.94 1577.54 1006.65 1578.24 1006.25C1582.58 1003.71 1582.08 995.742 1577.2 993.121L1575.83 992.287Z"/><path fill="#FAF9F5" d="M1483.73 991.435C1489.9 992.955 1487.49 995.36 1489.92 996.921C1492.55 996.988 1492.23 991.414 1495.57 992.005C1496.29 992.665 1496.13 993.582 1495.67 994.392L1492.16 1000.7C1491.52 1002.63 1492.25 1007.07 1490.89 1007.74C1487.47 1009.41 1489 1003.02 1488.54 1001.78C1487.24 998.277 1485.29 994.929 1483.73 991.435Z"/><path fill="#FAF9F5" d="M1604.96 992.352C1607.2 992.075 1617.17 990.882 1618.27 992.745C1615.37 998.875 1613.92 986.841 1613.77 1005.97C1612.87 1009.84 1610.33 1008.06 1610.43 1005.03C1610.53 1002.05 1610.59 998.45 1610.39 995.476C1610.33 994.563 1606.09 992.998 1604.96 992.352Z"/><path fill="#FAF9F5" d="M1468.35 992.181C1470.95 991.937 1479.53 990.948 1481.44 992.619L1481.37 993.098C1480.16 994.258 1478.19 993.778 1477.01 994.926C1476.65 996.601 1476.84 1003.18 1476.84 1005.25C1476.74 1006.63 1476.62 1007.8 1475.18 1008.34C1470.47 1005.92 1479.13 997.157 1469.91 992.991L1468.35 992.181Z"/><path fill="#DC6038" d="M1248.47 973.282C1291.05 971.089 1337.06 974.015 1379.91 973.137C1412.99 972.459 1423.83 1016.76 1385.79 1027.98C1347.75 1029.1 1308.91 1027.35 1270.78 1028.15C1262.59 1028.32 1243.57 1028.72 1236.97 1024.15C1214.84 1008.85 1220.71 978.35 1248.47 973.282Z"/><path fill="#141413" d="M1253.68 975.354L1337.41 975.197C1350.5 975.208 1388.36 973.329 1396.56 979.997C1416.53 996.219 1407.26 1022.7 1381.21 1025.76L1295.37 1025.84C1280.95 1025.86 1246.15 1028.3 1235.84 1020.37C1230.33 1016.08 1226.74 1009.8 1225.85 1002.88C1223.76 986.226 1238.65 976.59 1253.68 975.354Z"/><path fill="#FAF9F5" d="M1283.92 991.826C1295.33 992.357 1294.81 1000.38 1290.08 1008.65C1279.56 1006.98 1279.09 1000.28 1283.92 991.826Z"/><path fill="#141413" d="M1285.91 993.374C1291.27 996.428 1290.65 1001.5 1288.63 1006.73C1282.74 1003.36 1282.88 999.006 1285.91 993.374Z"/><path fill="#FAF9F5" d="M1325.83 991.889C1328.04 991.878 1335.59 991.146 1336.62 992.872C1336.49 996.078 1331.43 992.396 1328.75 995.898C1328.38 1000.15 1335.39 997.629 1335.26 1000.25C1334.24 1001.44 1330.48 1001.36 1328.23 1001.73C1331 1009.98 1338.4 1003.04 1336.79 1007.52C1335.63 1008.55 1326.98 1008.71 1326.48 1007.55C1325.1 1004.34 1325.85 995.501 1325.83 991.889Z"/><path fill="#FAF9F5" d="M1342.29 991.869C1345.67 991.944 1351.74 991.102 1351.73 996.426C1349.09 997.401 1348.26 994.884 1345.94 994.415C1344.83 993.924 1343.2 995.767 1343.77 996.499C1348.14 1002.08 1355.95 998.551 1350.13 1008.83C1345.47 1008.19 1342.04 1008.59 1339.64 1003.78C1339.98 1003.69 1340.32 1003.6 1340.66 1003.51C1341.54 1003.29 1342.47 1003.48 1343.19 1004.03C1345.46 1005.72 1346.1 1006.08 1348.85 1005.16C1349.58 998.186 1336.64 1004.3 1342.29 991.869Z"/><path fill="#FAF9F5" d="M1382.33 1000.78L1382.27 1001.84C1382.15 1004.5 1382.38 1006.17 1379.44 1007.82C1377.14 1009.11 1370.5 1007.6 1370.47 1004.47C1371.12 1000.58 1375.05 1005.4 1375.04 1005.4C1390.03 1003.73 1361.22 999.559 1373.62 992.292C1376.99 990.315 1380.7 992.79 1381.68 995.42L1382.3 996.9C1378.63 996.561 1377.56 993.603 1375.97 994.169C1369.01 996.649 1381.38 1000.26 1382.33 1000.78Z"/><path fill="#FAF9F5" d="M1271.82 991.559C1276.54 994.152 1272.94 1000.01 1274.25 1004.42C1274.74 1006.06 1278.15 1005.49 1278.49 1006.72C1277.93 1008.78 1270.89 1008 1268.82 1008.03C1267.84 1007.86 1267.14 1007.86 1266.48 1007.13C1266.51 1004.69 1272.14 1007.92 1271.25 1000.75C1270.43 994.138 1273.11 997.27 1267.57 996.016C1266.18 994.706 1270.92 992.205 1271.82 991.559Z"/><path fill="#FAF9F5" d="M1256.73 991.588C1261.48 994.598 1257.78 999.837 1259.19 1004.52C1259.56 1005.72 1262.15 1005.68 1263.05 1006.57C1263.19 1007.08 1263.18 1006.8 1262.97 1007.42C1261.97 1008.3 1254.82 1008.01 1253.02 1008.02C1252.66 1007.77 1250.66 1006.43 1252.39 1006.21C1254.1 1006 1256.36 1005.19 1256.04 1003C1255.73 1001.65 1256.84 996.524 1254.43 996.123C1250.17 995.412 1253.97 993.651 1256.73 991.588Z"/><path fill="#FAF9F5" d="M1308.51 992.374C1311.87 991.957 1314.56 991.663 1318 991.808C1318.53 991.725 1321.22 991.687 1321.7 992.405C1322.6 993.769 1318.27 994.384 1318.1 994.996C1317.29 997.809 1317.71 1002.15 1317.68 1005.25C1317.66 1006.79 1317.57 1008.39 1315.64 1008.55C1313.31 1006.52 1315.35 998.708 1314.42 995.45C1314.06 994.199 1310.53 993.365 1308.51 992.374Z"/><path fill="#FAF9F5" d="M1353.94 992.454C1356.28 992.208 1365.07 991.436 1367.07 992.565L1367.17 993.156C1363.85 998.308 1362.91 988.138 1362.84 1005.25C1362.76 1006.63 1362.65 1007.8 1361.16 1008.28C1358.41 1006.76 1360.6 998.836 1359.69 996.131C1359.04 994.172 1356.13 993.837 1353.94 992.454Z"/><path fill="#DC6038" d="M1040.68 973.099C1055.24 972.114 1166.1 971.656 1174.67 975.089C1181.69 977.906 1187.58 983.909 1190.46 990.879C1193.42 998.03 1192.68 1005.15 1189.4 1012.05C1185.26 1020.79 1177.95 1024.7 1169.25 1027.71C1130 1030.36 1084.75 1026.73 1045.03 1027.88C1014.37 1028.77 1002 982.834 1040.68 973.099Z"/><path fill="#141413" d="M1145.25 975.5C1156.96 975.206 1172.05 973.39 1181.34 981.92C1191.88 991.607 1192.57 1007.97 1182.14 1018.13C1178.74 1021.48 1174.42 1023.75 1169.74 1024.64C1160.79 1026.35 1141.27 1025.65 1131.37 1025.65L1060.75 1025.66C1049.41 1025.74 1036.54 1026.88 1027.46 1019.06C1016.77 1009.86 1016.13 993.476 1026.19 983.479C1037.71 972.019 1060.62 975.417 1076.24 975.436L1145.25 975.5Z"/><path fill="#FAF9F5" d="M1110.78 990.759C1121.11 994.068 1120.84 1001.54 1114.69 1009.26C1108.65 1007.61 1106.5 1007.34 1106 1000C1105.76 996.472 1106.94 994.143 1109.56 991.851L1110.78 990.759Z"/><path fill="#141413" d="M1110.65 993.268C1111.35 993.529 1112.04 993.789 1112.74 994.049C1113.82 994.476 1114.66 995.356 1115.04 996.457C1116.35 1000.22 1115.03 1003.78 1113.59 1007.14C1107.82 1003.35 1108.37 999.843 1110.65 993.268Z"/><path fill="#FAF9F5" d="M1123.74 991.875C1135.54 991.35 1136.46 998.366 1132.04 1008.13C1120.23 1009.04 1119.36 1001.45 1123.74 991.875Z"/><path fill="#141413" d="M1125.81 993.238C1132.71 995.83 1131.47 999.692 1130.03 1006.56C1122.76 1004.57 1124.14 1000.48 1125.81 993.238Z"/><path fill="#FAF9F5" d="M1154.46 1000.8C1148.66 988.96 1164.04 990.053 1163.41 996.184C1161.21 998.208 1156.04 990.003 1156.27 996.87C1156.33 998.455 1165.27 1000.17 1164.02 1004.43C1161.69 1010.44 1154.18 1010.1 1152.93 1002.87C1153.73 1003.23 1157.33 1005.59 1156.91 1005.45C1161.52 1006.94 1163.07 1001.77 1154.46 1000.8Z"/><path fill="#FAF9F5" d="M1070.67 991.516C1075.69 994.772 1070.78 998.921 1073.66 1001.69C1075.46 1003.43 1074.87 1004.64 1072.32 1007.28C1072.14 1007.34 1072.06 1007.4 1071.89 1007.35C1071.49 1007.22 1071.16 1006.35 1071.07 1006.19C1070.12 1005.44 1068.45 1004.03 1067.05 1004.25C1058.06 1005.69 1068.55 994.798 1070.67 991.516Z"/><path fill="#FAF9F5" d="M1054.84 991.875C1057.86 995.246 1055.01 1000.77 1056.4 1004.7C1057.01 1005.88 1060.43 1005.72 1060.48 1006.7C1060.56 1008.58 1052.71 1008.41 1051.82 1008.49C1050.87 1008.14 1050.18 1008.09 1049.67 1007.35C1049.84 1004.92 1052.96 1007.62 1053.21 1002.02C1053.62 993.188 1050.94 997.774 1049.74 995.464C1050.15 994.126 1053.42 992.767 1054.84 991.875Z"/><path fill="#FAF9F5" d="M1090.1 992.395C1092.13 992.075 1102.28 990.786 1103.18 992.665C1100.95 997.743 1098.97 987.589 1098.91 1005.25C1098.8 1006.65 1098.66 1007.75 1097.19 1008.3L1096.54 1007.99C1095.04 1005.68 1096.44 998.648 1095.67 995.628C1095.22 993.908 1092.91 993.987 1090.1 992.395Z"/><path fill="#FAF9F5" d="M1138.24 991.346C1144.56 994.114 1138.6 1000.55 1141.67 1005.13C1141.91 1005.48 1146.82 1005.58 1149.79 1007.52C1134.36 1009.76 1137.47 1006.64 1138.24 991.346Z"/><path fill="#685A57" d="M2369.33 734.47C2369.53 735.349 2369.64 736.113 2369.78 737.001C2275.86 761.174 2289.01 825.489 2227.29 880.56C2225.25 882.377 2223.92 881.122 2222.83 884.246C2224.17 886.724 2224.27 885.732 2223.86 887.718L2223.02 887.916L2220.83 884.638L2221.35 885.181L2219.64 886.375L2220.05 889.009C2222.49 890.77 2223.88 890.925 2227.25 890.254C2236.32 888.445 2237.54 892.612 2248.01 891.444L2325.39 882.664C2336.57 881.346 2358.49 878.151 2368.75 877.978C2368.72 878.97 2368.74 879.963 2368.82 880.954C2340.98 883.946 2312.61 887.976 2284.68 890.873C2274.58 891.921 2229.55 895.532 2222.66 898.034C2221.11 901.119 2221.2 899.603 2222.14 902.711L2223.02 902.727L2223.52 900.533C2227.89 908.775 2247.05 920.505 2254.72 930.554C2288.06 974.281 2303.81 1014.97 2362.97 1029.33C2365.13 1029.85 2367.29 1030.35 2369.46 1030.83C2369.47 1032.56 2369.64 1034.28 2369.95 1035.98C2368.52 1034.2 2359.87 1032.09 2357.37 1031.49C2298.26 1017.34 2281.42 964.577 2245.1 924.698C2241.74 921.001 2226.6 909.669 2221.76 909.826L2219.61 912.533L2218.76 912.309C2219.27 910.078 2219.44 910.127 2218.84 907.965C2215.77 906.557 2217.31 906.794 2214.08 907.063C2211.66 910.836 2213.32 913.624 2212.59 917.466C2211.86 921.349 2211.8 918.534 2207.4 920.814L2206.89 922.347C2205.92 925.518 2204.43 924.942 2203.71 927.075L2203.79 927.139C2203.93 928.152 2202.43 929.811 2201.63 930.208C2201.09 929.84 2200.66 929.577 2200.07 929.356C2197.51 930.684 2203.26 934.144 2191.62 935.587C2187.56 939.663 2190.68 936.383 2184.55 937.529C2184.52 938.396 2184.33 941.263 2184.62 941.871C2185.48 942.242 2185.23 942.193 2186.15 942.155C2186.85 941.667 2187.02 940.83 2187.05 940C2187.13 938.167 2190.01 939.253 2189.93 940.298C2189.65 943.854 2186.43 943.814 2184.6 944.631C2184.46 945.681 2184.47 946.691 2184.51 947.744C2185.02 948.3 2187.85 947.855 2189.04 948.217L2189.23 948.511C2188.76 949.245 2184.67 948.862 2181.58 951.175C2174.37 989.463 2148.34 1011.15 2111.88 1021.17C2111.75 1019.78 2111.47 1018.41 2111.05 1017.08C2115.45 1017.21 2126.16 1013.08 2130.31 1011.24C2154.3 1000.57 2173.55 979.68 2177.79 953.432C2177.6 952.395 2175.72 947.158 2175.67 947.594C2178.19 945.238 2178.17 948.997 2176.77 943.644C2176.72 943.473 2178.69 939.817 2178.4 938.517C2177.16 938.494 2165.77 938.399 2165.52 938.571L2165.55 938.762C2166.41 939.242 2170.35 940.826 2169.81 941.857C2167.43 946.379 2161.01 939.892 2160.88 946.514C2160.86 947.309 2155.99 948.711 2154.98 948.891L2153.93 949.07C2141.77 956.416 2127.07 961.892 2112.77 962.339L2112.06 960.07C2133.73 956.126 2140.96 955.609 2156.82 939.894C2155.96 937.703 2152.88 937.872 2149.51 935.239C2154.19 934.302 2152.55 936.84 2158.23 937.528L2159.51 935.656C2152.58 934.747 2147.73 933.076 2143.21 927.794C2144.56 927.855 2144.92 927.791 2146.25 927.67L2145.64 925.288C2144.21 925.131 2142.78 924.948 2141.35 924.737C2140.86 920.234 2140.5 918.069 2137.56 915.215C2136.58 917.323 2138.51 922.656 2139.21 925.562C2131.96 921.888 2134.85 908.553 2133.17 904.335C2133.28 905.491 2133.12 907.367 2133.07 908.517C2133.15 905.869 2133.08 906.041 2131.86 903.651C2127.46 900.161 2118.4 900.346 2112.88 900.147L2113.57 897.971L2112.21 897.392C2115.15 896.63 2115.96 895.551 2118.58 894.688C2125.41 892.436 2122.38 893.654 2126.01 894.685C2126.16 894.612 2126.32 894.538 2126.48 894.464C2126.63 889.09 2126.29 886.64 2129.36 881.693C2129.73 881.097 2128.8 880.773 2128.52 880.084C2128.77 879.233 2129.5 877.753 2130.55 877.845C2131.8 878.707 2131.51 880.776 2132.51 881.269C2138.61 879.62 2136.91 866.529 2145.13 864.736C2146.82 864.366 2148.25 863.149 2149.59 862.062C2149.27 858.438 2155.8 857.929 2159.17 854.857C2158.73 852.133 2159.35 853.26 2157.12 851.442C2154.99 852.06 2152.86 852.66 2150.72 853.24L2149.86 852.213C2151.54 851.11 2151.38 851.167 2152.83 849.772L2148.17 847.965C2151.25 847.497 2150.25 848.273 2151.79 846.313C2147.01 837.492 2121.15 833.09 2111.74 832.074C2111.81 831.042 2111.8 830.005 2111.71 828.974C2128.66 831.222 2146.53 834.271 2159.1 847.261C2162.73 851.63 2168.25 857.824 2169.88 863.226C2171.38 868.863 2176.29 864.834 2181.07 863.451C2182.52 861.094 2182.18 852.936 2182.27 849.494C2182.08 845.208 2181.53 842.922 2181.1 838.84C2181.98 840.495 2184.75 845.857 2184.61 847.318C2184.55 847.938 2186.7 846.787 2187.77 848.088L2187.81 848.491C2186.69 849.713 2183.98 847.722 2184.1 851.391C2184.9 851.975 2195.7 853.824 2197.52 855.556C2198.01 856.029 2201.82 858.183 2202.94 857.264C2205.16 854.069 2209.32 861.044 2209.4 862.464C2209 862.695 2199.56 857.238 2196.9 857.97C2196.67 858.196 2196.75 858.059 2196.67 858.384C2196.73 858.508 2208.6 865.366 2209.85 871.125C2212.01 872.253 2214.15 873.222 2216.47 873.985C2216.78 876.912 2216.62 878.41 2218.48 880.671L2220.65 880.154C2224.23 876.809 2224.93 875.038 2227.16 870.818L2227.67 873.838C2242.48 874.314 2273.91 812.659 2282.42 798.341C2303.35 763.096 2329.72 744.419 2369.33 734.47Z"/><path fill="#5C392B" d="M2181.1 838.84C2181.98 840.495 2184.75 845.857 2184.61 847.318C2184.55 847.938 2186.7 846.787 2187.77 848.088L2187.81 848.491C2186.69 849.713 2183.98 847.722 2184.1 851.391C2184.9 851.975 2195.7 853.824 2197.52 855.556C2198.01 856.029 2201.82 858.183 2202.94 857.264C2205.16 854.069 2209.32 861.044 2209.4 862.464C2209 862.695 2199.56 857.238 2196.9 857.97C2196.67 858.196 2196.75 858.059 2196.67 858.384C2196.73 858.508 2208.6 865.366 2209.85 871.125C2211.95 874.774 2213.07 877.894 2214.02 882.025C2214.78 884.956 2211.37 886.795 2211.47 882.634C2211.51 881.248 2208.81 875.642 2207.85 874.4C2204.68 869.735 2201.25 867.005 2196.59 864.151C2192.94 861.913 2191.28 862.334 2188.35 860.918C2186.44 860.666 2184.82 860.467 2182.89 860.322C2182.97 855.775 2182.9 854.074 2182.27 849.494C2182.08 845.208 2181.53 842.922 2181.1 838.84Z"/><path fill="#5C392B" d="M2112.21 897.392C2115.15 896.63 2115.96 895.551 2118.58 894.688C2125.41 892.436 2122.38 893.654 2126.01 894.685C2126.16 894.612 2126.32 894.538 2126.48 894.464C2126.63 889.09 2126.29 886.64 2129.36 881.693C2129.73 881.097 2128.8 880.773 2128.52 880.084C2128.77 879.233 2129.5 877.753 2130.55 877.845C2131.8 878.707 2131.51 880.776 2132.51 881.269C2138.61 879.62 2136.91 866.529 2145.13 864.736C2146.82 864.366 2148.25 863.149 2149.59 862.062C2149.42 865.895 2134.56 884.321 2135.48 887.967C2138.57 900.123 2124.99 895.969 2113.57 897.971L2112.21 897.392Z"/><path fill="#5C392B" d="M2181.58 951.175C2181.29 945.295 2183.7 936.409 2183.37 930.17C2183.34 929.622 2187.1 928.659 2187.55 928.667C2189.98 928.711 2191.52 926.68 2193.63 925.79C2195.61 924.934 2198.22 923.309 2199.4 921.388C2201.32 918.263 2204.44 919.437 2207.4 920.814L2206.89 922.347C2205.92 925.518 2204.43 924.942 2203.71 927.075L2203.79 927.139C2203.93 928.152 2202.43 929.811 2201.63 930.208C2201.09 929.84 2200.66 929.577 2200.07 929.356C2197.51 930.684 2203.26 934.144 2191.62 935.587C2187.56 939.663 2190.68 936.383 2184.55 937.529C2184.52 938.396 2184.33 941.263 2184.62 941.871C2185.48 942.242 2185.23 942.193 2186.15 942.155C2186.85 941.667 2187.02 940.83 2187.05 940C2187.13 938.167 2190.01 939.253 2189.93 940.298C2189.65 943.854 2186.43 943.814 2184.6 944.631C2184.46 945.681 2184.47 946.691 2184.51 947.744C2185.02 948.3 2187.85 947.855 2189.04 948.217L2189.23 948.511C2188.76 949.245 2184.67 948.862 2181.58 951.175Z"/><path fill="#5C392B" d="M2153.93 949.07C2158.85 943.01 2164.65 939.05 2167.63 931.312C2167.92 930.558 2170.27 924.674 2170.96 924.629C2180.03 924.031 2179.7 923.891 2179.82 933.001C2179.99 941.612 2180.03 946.101 2177.79 953.432C2177.6 952.395 2175.72 947.158 2175.67 947.594C2178.19 945.238 2178.17 948.997 2176.77 943.644C2176.72 943.473 2178.69 939.817 2178.4 938.517C2177.16 938.494 2165.77 938.399 2165.52 938.571L2165.55 938.762C2166.41 939.242 2170.35 940.826 2169.81 941.857C2167.43 946.379 2161.01 939.892 2160.88 946.514C2160.86 947.309 2155.99 948.711 2154.98 948.891L2153.93 949.07Z"/><path fill="#794530" d="M2182.8 866.088C2187.26 866.453 2186.31 866.44 2190.32 868.384C2191.98 869.489 2193.23 870.35 2194.74 871.732C2198.57 874.858 2201.91 879.533 2204.22 883.612C2209.36 892.69 2195.81 889.607 2198.37 884.012C2199.08 882.449 2190.16 874.885 2189.91 872.306C2189.66 869.757 2184.79 867.087 2182.8 866.088Z"/><path fill="#5C392B" d="M2182.89 860.322C2184.82 860.467 2186.44 860.666 2188.35 860.918C2191.13 862.287 2193.81 863.833 2196.38 865.547C2196.81 865.825 2197.24 866.102 2197.66 866.38L2200.65 868.378C2202.34 869.518 2204.82 871.564 2203.7 873.82L2203.36 874.011C2199.72 871.59 2194.53 869.479 2190.32 868.384C2186.31 866.44 2187.26 866.453 2182.8 866.088C2182.79 864.176 2182.85 862.237 2182.89 860.322Z"/><path fill="#D97757" d="M2170.38 875.857C2174.05 875.524 2179.73 875.497 2183.41 875.582C2191.41 880.554 2194.29 882.973 2198.23 892.08C2201.3 899.163 2192.13 911.37 2185.66 914.152C2177.39 916.717 2174.58 917.881 2165.99 912.361C2162 909.841 2159.04 905.978 2157.64 901.467C2156.99 899.403 2155.05 897.614 2155.7 895.53C2159.28 884.025 2159.84 882.776 2170.38 875.857Z"/><path fill="#5C392B" d="M2152.87 867.625C2161.14 870.507 2140.13 878.008 2147.23 881.516C2148.11 883.135 2144.56 887.12 2144.05 888.085C2143.08 889.885 2144.49 892.472 2144.39 895.498C2139.23 895.593 2137.82 896.237 2138.92 890.457C2140.38 882.811 2147.42 873.041 2152.87 867.625Z"/><path fill="#5C392B" d="M2199.41 915.931C2200.13 916.36 2200.27 916.261 2200.42 916.817C2198.96 922.4 2188.38 925.447 2183.88 927.257C2183.26 927.127 2183.21 927.204 2182.86 926.835C2182.56 924.461 2188.72 922.551 2190.47 922.402C2192.23 922.252 2198.06 917.099 2199.41 915.931Z"/><path fill="#5C392B" d="M2157.5 858.353C2161.34 860.984 2160.27 861.096 2156.49 863.365C2152.69 861.432 2154.92 861.096 2157.5 858.353Z"/><path fill="#DC6038" d="M866.217 973.148C877.549 972.228 894.622 973.198 906.587 972.801C919.448 973.306 933.514 971.748 946.25 973.238C981.252 977.335 982.992 1019.89 948.598 1027.95L896.548 1028.23C876.313 1028.29 846.82 1032.07 841.33 1005.38C837.878 988.598 850.236 976.142 866.217 973.148Z"/><path fill="#141413" d="M868.163 975.316C888.97 974.831 910.072 975.511 930.914 974.993C945.399 974.634 968.149 977.303 970.397 995.666C972.614 1013.77 961.609 1023.44 944.844 1025.63C925.083 1026.3 904.818 1025.1 884.29 1025.93C858.461 1026.97 832.575 1017.2 847.973 985.701C850.915 979.683 861.54 976.265 868.163 975.316Z"/><path fill="#FAF9F5" d="M931.988 991.57C944 992.171 939.189 993.84 940.693 1001.62C941.438 1005.49 940.63 1005.77 938.775 1008.92C927.234 1006.84 931.025 1005.63 931.222 997.977C931.324 994.015 930.279 996.684 931.988 991.57Z"/><path fill="#141413" d="M933.645 1001.53C934.292 1000.72 935.344 1000.35 936.354 1000.58C937.364 1000.81 938.156 1001.59 938.393 1002.6C938.63 1003.61 938.271 1004.66 937.469 1005.32C936.396 1006.19 934.835 1006.12 933.852 1005.14C932.869 1004.17 932.779 1002.61 933.645 1001.53Z"/><path fill="#141413" d="M935.139 995.365C937.305 993.902 938.133 994.536 936.736 996.777C936.329 997.259 935.639 998.452 934.782 998.191C934.146 997.271 934.765 996.332 935.139 995.365Z"/><path fill="#FAF9F5" d="M892.604 991.843C894.95 995.189 893.273 1000.09 893.69 1004.04C893.919 1006.21 897.2 1005.7 896.959 1007.32C895.794 1008.44 888.684 1007.91 886.526 1007.88C888.054 1005.9 889.871 1005.77 890.143 1004.53C890.553 1002.66 890.749 997.572 889.931 995.938C888.6 996.163 887.45 996.717 886.426 995.848C886.606 994.761 888.114 994.184 888.952 993.767L892.604 991.843Z"/><path fill="#FAF9F5" d="M916.303 991.38C922.7 994.11 916.914 1000.41 919.694 1004.61C920.387 1005.66 924.298 1005.01 927.834 1007.53C912.495 1009.66 915.461 1006.66 916.303 991.38Z"/><path fill="#FAF9F5" d="M872.368 991.551C875.404 993.068 875.292 994.249 875.024 997.68C874.095 1009.58 876.875 1003.06 883.57 1007.21C868.703 1010.64 870.908 1005.26 872.368 991.551Z"/><path fill="#FAF9F5" d="M900.306 999.516C905.744 998.719 908.403 998.053 912.922 1000.53C907.872 1001.32 904.506 1002.11 900.306 999.516Z"/><path fill="#DC6038" d="M1702.34 973.206C1720.29 972.595 1765.29 969.979 1780.8 977.217C1804.02 988.054 1798.7 1021 1770.63 1028.04C1743.47 1028.22 1678.57 1037.87 1678.26 1001.81C1678.13 985.889 1687.51 976.653 1702.34 973.206Z"/><path fill="#141413" d="M1705.3 975.361C1724.41 975.263 1764.39 972.093 1780.31 979.762C1802.09 990.258 1795.02 1021.14 1768.13 1025.65C1751.98 1026.22 1703.16 1029.1 1690.58 1020.07C1672.32 1006.98 1679.27 979.173 1705.3 975.361Z"/><path fill="#FAF9F5" d="M1723.13 1001.96C1720.18 1006.46 1720.46 1002.11 1718.67 1000.76L1718.53 1000.8C1717.59 1002.75 1718.9 1006.11 1717.33 1008.07C1715.28 1008.05 1715.2 1005.71 1715.24 1004.12C1715.32 1000.94 1715.09 997.105 1715.23 993.964C1715.33 991.65 1718.15 991.174 1719.29 992.861C1720.24 994.505 1719.96 996.594 1721.32 997.741C1722.78 997.67 1722.87 991.633 1725.5 991.8C1727.93 991.955 1727.86 994.926 1727.59 997C1727.23 999.836 1728.57 1005.25 1726.59 1007.67C1726.14 1008.06 1725.69 1008.45 1725.24 1008.84C1724.59 1006.5 1724.1 1004.19 1723.13 1001.96Z"/><path fill="#4F3F3D" d="M1723.13 1001.96C1723.36 1001.27 1723.56 1000.02 1724.23 999.573C1725.41 999.62 1725.17 1007.49 1725.24 1008.84C1724.59 1006.5 1724.1 1004.19 1723.13 1001.96Z"/><path fill="#FAF9F5" d="M1730.42 992.336C1732.18 992.11 1745.55 990.122 1738.86 994.721C1737.23 995.839 1736.68 1004.27 1740.72 1007.11L1741.92 1008.07C1740.1 1008.11 1733.11 1008.66 1731.99 1007.45C1731.64 1005.8 1734.61 1006.28 1734.79 1005.41C1735.44 1002.32 1735.42 998.097 1734.84 994.992C1734.75 994.535 1731.15 992.809 1730.42 992.336Z"/><path fill="#FAF9F5" d="M1744.05 992.433C1746.47 992.06 1755.33 990.954 1757.01 992.637L1757 993.114C1752.74 998.194 1753.04 989.371 1752.98 1005.25C1752.85 1006.65 1752.8 1008.18 1751 1008.12C1748.85 1005.77 1750.72 998.467 1749.91 995.481C1749.59 994.291 1746.32 993.741 1744.05 992.433Z"/><path fill="#FAF9F5" d="M1702.41 759.596L1718.9 759.6L1718.96 860.737C1714.18 860.857 1709.9 861.083 1705.12 860.489C1704.01 857.397 1704.03 856.188 1703.74 852.99C1700.1 853.929 1697.82 857.415 1694.05 859.679C1686.1 864.447 1680.15 863.232 1671.78 861.501C1632.52 840.349 1655.5 762.648 1702.27 795.879L1702.41 759.596Z"/><path fill="#141413" d="M1683.2 802.128C1692.63 802.526 1700.42 805.738 1702.03 815.986C1704.29 830.472 1703.91 842.309 1688.95 847.932C1680.43 847.894 1673.35 846.813 1670.71 837.577C1666.63 823.351 1667.24 807.13 1683.2 802.128Z"/><path fill="#FAF9F5" d="M1218.89 759.866L1235.07 759.883L1234.98 860.677C1231.68 860.733 1223.4 861.36 1221.13 859.527L1220.64 853.762L1219.18 853.336C1207.44 862.717 1203.86 864.088 1188.99 861.588C1146.82 840.58 1174.82 760.942 1218.99 795.646L1218.89 759.866Z"/><path fill="#141413" d="M1200.17 802.226C1216.6 802.912 1219.67 811.4 1219.23 826.503C1218.86 839.034 1216.16 844.231 1204.34 848.154C1195.43 847.783 1188.65 845.174 1186.64 835.589C1183.64 821.246 1184.32 806.508 1200.17 802.226Z"/><path fill="#FAF9F5" d="M1516.51 788.182C1523.6 787.597 1533.36 787.119 1539.63 790.567C1568.81 806.606 1565.56 851.291 1533.66 862.016C1481.22 869.925 1477 798.979 1516.51 788.182Z"/><path fill="#141413" d="M1518.76 803.131C1534.87 801.813 1541.54 806.027 1542.16 824.003C1542.54 835.278 1540.35 842.238 1530.09 847.886C1508.61 848.696 1505.14 836.636 1508.33 816.004C1509.3 809.721 1513.41 806.216 1518.76 803.131Z"/><path fill="#FAF9F5" d="M1033.46 788.186C1083.74 784.742 1074.08 824.524 1073.9 860.816C1071.14 860.819 1062.71 861.278 1060.48 860.36C1059.09 859.785 1060.72 852.738 1058.81 851.174C1058.26 851.1 1036.37 876.131 1011.73 854.097C1007.68 848.132 1006.31 844.794 1006.9 838.499C1009.14 814.731 1040.05 817.471 1056.7 814.778C1057.08 814.513 1056.89 813.243 1056.85 813.017C1055.06 802.237 1044.52 800.914 1035.5 802.954C1030.29 804.132 1029.29 806.554 1026.65 810.414L1026.64 810.404L1009.37 809.853C1014.48 796.049 1018.5 791.765 1033.46 788.186Z"/><path fill="#141413" d="M1047.61 828.354C1050.62 827.876 1055.36 827.754 1058.6 827.529C1054.62 842.429 1053.12 846.514 1037.3 849.279L1035.88 849.071C1030.96 848.389 1025.67 846.589 1024.64 841.072C1022.69 830.657 1040.99 829.183 1047.61 828.354Z"/><path fill="#FAF9F5" d="M1275.5 788.127C1306.13 785.79 1316.94 801.861 1317.13 830.205C1300.78 830.219 1284.28 830.198 1267.96 830.419C1262.92 830.488 1268.67 842.993 1272.92 845.242C1280.9 849.455 1292.63 850.032 1297.81 841.34C1299.67 838.233 1301.43 839.053 1304.72 838.933C1308.94 839.54 1312.29 839.749 1316.39 840.238C1315.64 841.832 1314.87 843.421 1314.11 845.007C1300.26 873.051 1255.59 866.934 1250.04 836.5C1245.95 814.08 1251.6 794.71 1275.5 788.127Z"/><path fill="#141413" d="M1279.88 802.242C1285.67 802.092 1300.2 803.565 1299.58 816.715C1299.53 817.702 1288.35 817.267 1286.5 817.259C1284.09 817.255 1268.04 817.458 1267.59 816.978C1262.34 811.429 1275.75 803.494 1279.88 802.242Z"/><path fill="#DC6038" d="M2369.33 734.47C2368.4 725.2 2369.08 717.134 2375.45 709.736C2401.5 679.463 2447.33 716.317 2422.74 747.742C2407.82 766.822 2376.6 760.602 2369.78 737.001C2369.64 736.113 2369.53 735.349 2369.33 734.47Z"/><path fill="#DC6038" d="M2368.75 877.978C2369.19 861.549 2382.65 848.467 2399.08 848.5C2415.52 848.533 2428.93 861.669 2429.3 878.099C2429.67 894.53 2416.87 908.258 2400.45 909.032C2384.03 909.807 2369.99 897.346 2368.82 880.954C2368.74 879.963 2368.72 878.97 2368.75 877.978Z"/><path fill="#DC6038" d="M2369.46 1030.83C2369.32 1014.9 2381.77 1001.69 2397.68 1000.86C2413.6 1000.04 2427.34 1011.89 2428.85 1027.76C2430.36 1043.62 2419.12 1057.86 2403.33 1060.07C2387.55 1062.27 2372.83 1051.65 2369.95 1035.98C2369.64 1034.28 2369.47 1032.56 2369.46 1030.83Z"/><path fill="#FAF9F5" d="M1782.65 789.197C1788.19 789.156 1793.72 789.145 1799.25 789.166L1799.26 811.75L1799.34 860.813C1795.1 860.823 1789.74 861.069 1785.6 860.666C1783.01 860.413 1785.51 852.545 1782.52 852.236C1782.18 852.469 1781.9 852.777 1781.61 853.067C1781.25 853.425 1780.91 853.798 1780.56 854.161C1774.84 860.051 1768.8 862.987 1760.5 863.013C1752.69 863.037 1745.68 860.512 1740.22 854.805C1737.81 852.339 1736.09 849.3 1735.19 845.978C1733.41 839.417 1733.96 798.013 1734.11 789.218L1750.71 789.215C1750.84 804.958 1750.49 820.834 1750.96 836.514C1751.22 845.311 1760.97 848.842 1768.44 847.591C1775.69 846.379 1778.28 843.243 1782.42 837.749C1782.61 821.566 1782.69 805.381 1782.65 789.197Z"/><path fill="#FAF9F5" d="M1090.04 789.211L1106.22 789.224C1106.24 803.873 1106.17 820.095 1106.34 834.507C1106.59 855.618 1137.4 847.556 1137.93 837.97C1138.63 825.47 1138.21 802.525 1138.18 789.371L1154.54 789.335L1154.54 814.085C1154.65 829.598 1154.68 845.113 1154.62 860.626C1135.92 860.635 1141.75 862.411 1139.65 852.006C1138.69 851.033 1136.39 854.705 1136.01 855.004C1114.13 872.29 1087.08 861.309 1089.96 831.391C1091.15 818.981 1089.75 801.086 1090.04 789.211Z"/><path fill="#FAF9F5" d="M1931.41 764.108L1932.57 764.655C1933.67 769.739 1933.18 783.405 1933.14 789.251L1963.88 789.213L1963.88 802.896L1933.06 802.848C1933.35 831.262 1924.05 858.556 1964.75 844.537C1964.91 849.466 1966.37 857.355 1962.34 860.186C1908.96 873.413 1916.48 840.296 1916.77 802.975L1893.96 803.038L1893.99 789.18L1916.47 789.235L1916.47 768.546L1931.41 764.108Z"/><path fill="#FAF9F5" d="M928.986 759.449L969.059 759.447L969.14 846.902L993.846 846.977L993.853 860.693L969.5 860.663L928.053 860.636L928.064 846.894L952.127 846.867L952.312 773.281L928.851 773.358C928.833 768.763 928.934 764.054 928.986 759.449Z"/><path fill="#FAF9F5" d="M1606.23 788.159C1618.47 787.339 1636.46 789.956 1637.71 806.007C1639.07 823.476 1638.27 842.856 1638.23 860.61L1622.06 860.612C1622.06 847.149 1622.93 824.873 1621.28 811.446C1620.16 802.292 1606.85 801.987 1598.53 804.869C1593.77 807.88 1592.97 808.605 1589.11 812.555L1589.24 860.692L1572.89 860.698L1572.91 789.588C1576.58 789.583 1579.94 789.629 1583.59 789.396C1589.36 789.029 1585.67 796.415 1588.54 799.316C1589.72 799.659 1590.61 797.99 1591.51 796.932C1595.76 791.968 1600.11 789.955 1606.23 788.159Z"/><path fill="#FAF9F5" d="M871.319 788.262C894.917 785.981 906.388 791.682 913.523 814.647C907.581 814.773 901.638 814.835 895.694 814.834C894.026 811.336 892.941 807.629 889.694 805.345C882.872 800.215 870.941 801.884 866.469 809.444C860.87 818.001 860.799 840.965 871.524 846.001C882.138 850.985 889.417 847.739 894.511 838.458C894.849 832.682 908.733 834.993 913.91 834.974C913.244 836.976 912.562 838.973 911.862 840.963C901.111 870.978 857.245 870.111 848.133 840.992C841.038 818.319 847.594 796.166 871.319 788.262Z"/><path fill="#FAF9F5" d="M1437.29 788.231C1461.78 786.326 1470.65 791.944 1479.33 814.711C1473.24 814.837 1467.14 814.91 1461.05 814.931C1457.42 806.727 1456.14 802.753 1445.51 802.251C1420.69 801.077 1421.97 853.55 1448.44 847.635C1455.01 846.168 1456.78 843.896 1460.3 838.609C1461.19 832.339 1473.31 834.923 1479.28 834.977C1475.05 846.672 1471.01 855.875 1458.39 860.627C1440.73 867.614 1417.92 858.936 1413 839.501C1407.28 816.915 1413.3 795.057 1437.29 788.231Z"/><path fill="#6B6866" d="M734.751 580.195L737.202 581.298C739.068 584.067 738.11 667.825 738.12 676.927L738.189 993.427L738.172 1078.22C738.184 1090.04 738.775 1112.95 737.588 1124.05L735.333 1122.92C734.915 1122.29 734.497 1121.65 734.079 1121.01C733.84 1096.24 734.002 1045.35 734.009 1023.36L733.986 712.561L733.966 625.074C733.97 615.373 733.451 588.455 734.751 580.195Z"/><path fill="#FAF9F5" d="M1817.39 789.159L1859.06 789.14L1859.15 846.875L1883.47 846.822C1883.52 851.434 1883.52 856.047 1883.46 860.659L1860.25 860.685L1816.85 860.645C1816.72 856.059 1816.63 851.471 1816.58 846.884L1842.34 846.851C1842.48 832.183 1842.5 817.514 1842.4 802.846L1817.38 802.916C1817.35 798.33 1817.36 793.745 1817.39 789.159Z"/><path fill="#6B6866" d="M2112.88 900.147C2112.24 902.14 2112.15 903.372 2111.69 905.408C2108.22 920.913 2087.86 925.549 2077.11 914.464C2072.07 909.264 2070.35 901.307 2072.96 894.482C2074.91 889.343 2078.92 885.249 2084.01 883.18C2096.64 878 2107.44 885.698 2112.21 897.392L2113.57 897.971L2112.88 900.147Z"/><path fill="#6B6866" d="M2112.77 962.339C2109.82 970.637 2110.82 976.355 2100.49 980.939C2083.7 988.392 2065.92 971.483 2073.98 954.504C2076.26 949.772 2080.41 946.211 2085.43 944.689C2099.93 940.319 2107.18 948.153 2112.06 960.07L2112.77 962.339Z"/><path fill="#6B6866" d="M2111.88 1021.17C2112.89 1031.64 2105.53 1041.07 2095.14 1042.63C2084.74 1044.19 2074.93 1037.34 2072.83 1027.04C2070.72 1016.73 2077.04 1006.58 2087.21 1003.93C2097.39 1001.28 2107.86 1007.06 2111.05 1017.08C2111.47 1018.41 2111.75 1019.78 2111.88 1021.17Z"/><path fill="#6B6866" d="M2111.16 774.153C2108.5 784.113 2098.62 790.349 2088.48 788.473C2078.35 786.598 2071.36 777.241 2072.43 766.989C2073.51 756.736 2082.29 749.036 2092.6 749.307C2102.9 749.579 2111.27 757.731 2111.8 768.026C2111.91 770.09 2111.69 772.157 2111.16 774.153Z"/><path fill="#6B6866" d="M2111.74 832.074C2110.99 842.646 2102.03 850.741 2091.44 850.41C2080.84 850.08 2072.4 841.442 2072.32 830.844C2072.23 820.246 2080.53 811.473 2091.11 810.97C2101.7 810.467 2110.79 818.415 2111.71 828.974C2111.8 830.005 2111.81 831.042 2111.74 832.074Z"/><path fill="#FAF9F5" d="M1333.2 809.994L1394.32 810.011L1394.22 826.094L1333.16 826.269L1333.2 809.994Z"/><path fill="#4F3F3D" d="M2111.8 768.026C2113.31 770.343 2125.25 774.136 2129.14 775.718C2155.27 786.355 2176.79 810.216 2181.1 838.84C2181.53 842.922 2182.08 845.208 2182.27 849.494C2182.18 852.936 2182.52 861.094 2181.07 863.451C2176.29 864.834 2171.38 868.863 2169.88 863.226C2168.25 857.824 2162.73 851.63 2159.1 847.261C2161.53 847.318 2161.79 847.091 2163.89 848.187L2163.12 848.847C2167.83 853.652 2171.32 855.638 2178.14 853.25L2178.04 850.981C2176.01 849.453 2172.97 849.525 2170.29 849.239L2170.06 848.197C2171.34 847.894 2174.96 848.297 2176.7 848.283L2177.95 846.556C2177.18 833.143 2172.79 820.189 2165.25 809.074C2153.35 791.645 2131.79 777.889 2111.16 774.153C2111.69 772.157 2111.91 770.09 2111.8 768.026Z"/><path fill="#5C392B" d="M2169.88 863.226C2170.41 862.776 2171.45 862.01 2171.96 861.444C2173.27 859.995 2175.26 859.809 2177.08 859.73C2177.66 859.705 2178.25 859.646 2178.84 859.731C2178.91 859.725 2178.99 859.718 2179.06 859.711C2180.04 860.266 2180.05 860.791 2180.4 861.77C2180.61 862.335 2180.83 862.896 2181.07 863.451C2176.29 864.834 2171.38 868.863 2169.88 863.226Z"/><path fill="#9B9B9E" d="M1160.83 903.785C1177.54 904.669 1177.33 921.2 1167.64 929.613C1151.12 930.857 1150.89 912.695 1160.83 903.785Z"/><path fill="#141413" d="M1161.72 907.346C1172.3 909.405 1170.12 919.391 1166.06 926.79C1156.8 923.544 1157.71 915.153 1161.72 907.346Z"/><path fill="#9B9B9E" d="M1932.04 904.074C1935.7 904.102 1940.69 903.664 1943.98 905.211C1952.28 909.114 1950.68 920.412 1947.53 927.019L1946.45 927.548C1941.44 930.053 1937.85 929.286 1931.99 929.364L1932.04 904.074Z"/><path fill="#141413" d="M1936.86 907.548C1937.61 907.67 1938.37 907.784 1939.12 907.889C1939.44 907.93 1939.75 907.97 1940.06 908.011C1941.82 908.278 1943.36 909.306 1944.29 910.819C1946.33 914.221 1944.98 921.109 1944.04 924.734C1932.77 927.372 1936.89 919.165 1936.86 907.548Z"/><path fill="#9B9B9E" d="M1382.85 903.746C1399.11 905.29 1398.83 921.807 1388.23 929.877C1372.59 928.846 1372.92 911.072 1382.85 903.746Z"/><path fill="#141413" d="M1382.79 907.404C1393.76 909.226 1391.74 917.915 1387.86 926.641C1378.23 924.246 1380.16 915.015 1382.79 907.404Z"/><path fill="#9B9B9E" d="M1780.86 903.876C1797.83 904.38 1796.74 922.064 1787.39 929.631C1779.23 929.207 1775.48 927.958 1774.74 918.505C1774.28 912.736 1775.47 908.954 1779.72 904.986L1780.86 903.876Z"/><path fill="#141413" d="M1781.9 907.294C1792.36 909.52 1790.17 919.066 1786.01 926.729C1776.35 923.398 1778.25 914.987 1781.9 907.294Z"/><path fill="#9B9B9E" d="M869.661 903.768C881.218 904.661 882.613 908.404 882.159 919.518C881.98 923.885 880.524 926.282 877.06 928.855L875.786 929.838C860.424 929.478 860.224 912.044 869.661 903.768Z"/><path fill="#141413" d="M870.883 907.277C881.059 909.905 879.218 919.021 874.901 926.481C865.212 923.766 866.917 914.511 870.883 907.277Z"/><path fill="#FAF9F5" d="M1845.68 759.355C1851.27 757.116 1857.62 759.769 1859.97 765.319C1862.31 770.87 1859.77 777.271 1854.26 779.712C1850.61 781.332 1846.37 780.853 1843.17 778.46C1839.97 776.067 1838.31 772.133 1838.83 768.172C1839.35 764.211 1841.97 760.839 1845.68 759.355Z"/><path fill="#9B9B9E" d="M1517.98 917.029C1518.12 916.484 1520.58 907.731 1520.57 907.691C1520.12 903.419 1526.29 903.008 1526.84 905.966C1526.94 910.182 1527.31 915.311 1526.98 919.519C1526.44 926.253 1529.57 928.613 1522.77 929.336C1521.94 924.832 1522.14 920.958 1521.42 916.463C1519.93 920.591 1520.52 923.484 1516.01 922.01L1514.91 922.425C1512.9 923.137 1512.98 927.794 1512.12 930.412C1511.63 930.196 1508.27 928.955 1508.29 928.377C1508.42 924.342 1506.09 905.517 1509.79 904.114C1514.95 902.159 1516.73 913.316 1517.98 917.029Z"/><path fill="#141413" d="M1512.18 912.313L1512.36 912.684C1513.94 915.925 1514.85 918.612 1516.01 922.01L1514.91 922.425C1512.9 923.137 1512.98 927.794 1512.12 930.412C1512.09 924.379 1512.11 918.346 1512.18 912.313Z"/><path fill="#4F3F3D" d="M1521.42 916.463C1522.52 907.859 1522.82 928.406 1522.77 929.336C1521.94 924.832 1522.14 920.958 1521.42 916.463Z"/><path fill="#9B9B9E" d="M980.965 903.741C983.939 903.905 988.549 903.613 989.794 907.636C991.213 912.221 988.363 913.839 985.925 916.962C985.707 917.611 988.798 921.048 989.543 920.496C995.159 916.33 994.116 916.158 993.478 924.604C995.261 927.204 995.947 924.867 997.688 929.543C996.288 929.426 993.839 929.366 992.522 928.899C988.146 927.18 980.482 931.587 976.651 927.476C972.564 923.088 976.38 918.197 978.594 915.74C978.82 915.489 975.721 908.018 979.375 905.803C979.548 905.698 980.177 904.764 980.965 903.741Z"/><path fill="#141413" d="M980.521 918.506C984.129 920.489 987.144 922.311 986.203 926.636C982.193 925.765 977.665 925.034 980.015 919.71L980.521 918.506Z"/><path fill="#141413" d="M982.351 908.421C983.089 907.93 984.042 907.9 984.81 908.344C985.577 908.788 986.026 909.629 985.968 910.514C985.91 911.399 985.355 912.174 984.535 912.514C983.427 912.973 982.152 912.517 981.587 911.458C981.022 910.4 981.353 909.086 982.351 908.421Z"/><path fill="#9B9B9E" d="M1642.85 904.332C1654.49 904.381 1668.64 905.688 1656.22 918.963C1654.62 920.664 1665.12 928.362 1657.87 929.387L1656.34 929.629C1655.08 927.238 1651.63 919.25 1649.15 918.718C1645.29 921.541 1650.36 928.258 1645.5 929.243C1640.71 930.21 1642.73 908.782 1642.85 904.332Z"/><path fill="#141413" d="M1648.28 908.819C1649.86 907.151 1652.48 907.052 1654.18 908.595C1655.87 910.138 1656.03 912.757 1654.51 914.484C1653.51 915.632 1651.97 916.148 1650.48 915.833C1648.98 915.519 1647.78 914.424 1647.32 912.969C1646.87 911.514 1647.24 909.927 1648.28 908.819Z"/><path fill="#9B9B9E" d="M1253.18 916.638L1254.14 913.717C1255.66 908.991 1255.28 902.822 1261.11 904.437C1261.62 904.579 1262.2 905.087 1262.42 905.643C1262.88 912.168 1262.88 921.537 1262.29 928.054C1262.26 928.439 1261.33 929.017 1261.04 929.103C1260.34 929.296 1259.59 929.17 1258.99 928.759C1257.33 927.628 1257.98 922.662 1257.95 920.794C1256.81 921.188 1255.75 921.618 1254.63 922.063C1252.7 924.308 1252.18 922.684 1250.82 920.511L1248.16 920.163C1248.04 922.603 1249.06 929.851 1245.79 929.133C1245.35 929.035 1244.6 928.852 1244.32 928.316C1243.07 922.547 1243.96 912.327 1244.07 906.063C1244.08 905.594 1244.53 904.918 1244.76 904.72C1251.38 903.258 1251.53 910.977 1253.18 916.638Z"/><path fill="#141413" d="M1254.63 922.063C1255.17 920.735 1256.68 916.301 1257.51 915.61C1258.4 916.464 1258.02 919.624 1257.95 920.794C1256.81 921.188 1255.75 921.618 1254.63 922.063Z"/><path fill="#141413" d="M1248.16 920.163C1247.96 912.191 1249.35 915.016 1250.82 920.511L1248.16 920.163Z"/><path fill="#9B9B9E" d="M1798.32 904.079C1802.57 904.126 1810.18 903.409 1813.19 905.736C1820.75 911.834 1811.77 915.848 1812.43 920.743C1812.62 922.157 1820.24 931.609 1811.64 928.617L1811.16 927.621C1809.9 924.967 1807.8 919.123 1804.37 918.903C1800.87 920.862 1806.05 932.157 1798.82 928.467C1797.85 927.971 1798.29 906.433 1798.32 904.079Z"/><path fill="#141413" d="M1803.77 908.824C1805.38 907.226 1807.96 907.165 1809.64 908.685C1811.33 910.204 1811.53 912.775 1810.11 914.54C1809.11 915.772 1807.52 916.353 1805.97 916.051C1804.41 915.749 1803.15 914.612 1802.69 913.097C1802.23 911.583 1802.65 909.938 1803.77 908.824Z"/><path fill="#9B9B9E" d="M1709.67 904.052C1716.07 904.079 1735.57 903.644 1723.69 918.428C1722.27 920.191 1728.31 927.105 1727.37 928.664C1726.24 929.296 1724.65 929.53 1723.36 929.81C1722.14 926.945 1719.67 919.124 1716.23 918.737C1711.51 921.045 1717.57 932.126 1710.21 928.767C1709.21 928.309 1709.67 906.904 1709.67 904.052Z"/><path fill="#141413" d="M1715.02 908.847C1716.61 907.242 1719.18 907.158 1720.87 908.657C1722.57 910.155 1722.8 912.715 1721.4 914.491C1720.42 915.734 1718.83 916.333 1717.27 916.047C1715.72 915.761 1714.45 914.637 1713.98 913.128C1713.5 911.618 1713.9 909.971 1715.02 908.847Z"/><path fill="#9B9B9E" d="M1101.46 903.547L1103.19 903.896C1109.67 905.12 1105.03 922.302 1106.06 928.004C1106.57 930.854 1097.18 928.454 1098.56 924.391C1098.54 923.68 1093.58 913.04 1092.85 911.165C1092.84 913.45 1094.94 934.975 1088.62 928.156C1089.1 928.678 1086.45 901.762 1091.85 903.734C1095.79 905.175 1097.88 913.681 1099.73 917.736C1101.66 913.653 1100.25 909.783 1101.46 903.547Z"/><path fill="#141413" d="M1099.73 917.736C1101.66 913.653 1100.25 909.783 1101.46 903.547C1101.64 905.959 1102.64 920.415 1101.42 921.112C1100.43 920.215 1100.11 918.994 1099.73 917.736Z"/><path fill="#9B9B9E" d="M1412.37 921.528C1412.37 918.87 1411.79 905.686 1413.08 904.63C1419.66 899.282 1416.95 925.961 1416.79 929.736C1407.82 928.307 1407.86 920.775 1403.81 912.064C1403.76 913.976 1403.78 927.593 1403.41 928.058C1397.17 935.764 1399.51 907.033 1399.53 903.843C1400.1 903.927 1404.07 904.481 1404.11 904.511C1406.49 906.463 1411.33 919.091 1412.37 921.528Z"/><path fill="#9B9B9E" d="M1178.1 904.106C1180.67 904.108 1189.38 903.783 1190.99 905.045C1201.83 913.558 1193.06 918.879 1185.15 920.686C1179.42 919.556 1186.45 928.454 1180.29 929.613C1176.39 928.178 1178.06 908.861 1178.1 904.106Z"/><path fill="#141413" d="M1183.51 908.87C1185.11 907.289 1187.66 907.195 1189.37 908.653C1191.09 910.111 1191.4 912.638 1190.1 914.474C1189.15 915.814 1187.53 916.503 1185.9 916.254C1184.28 916.006 1182.94 914.863 1182.43 913.3C1181.92 911.738 1182.34 910.023 1183.51 908.87Z"/><path fill="#9B9B9E" d="M944.867 922.168C944.858 917.118 944.796 912.067 944.68 907.017C944.597 903.356 948.391 903.615 948.675 905.235C949.287 909.295 948.999 913.97 948.98 918.124C948.682 921.348 949.637 925.388 948.41 928.434C948.033 929.37 944.729 929.323 944.215 928.636C940.761 924.012 938.419 916.48 935.821 911.152C935.795 917.249 936.144 923.596 935.198 929.533C934.39 929.399 932.007 929.161 931.905 928.331C931.15 922.207 931.349 909.308 932.284 903.895C933.13 904.043 936.403 904.196 936.88 904.998C939.986 910.225 942.526 916.537 944.867 922.168Z"/><path fill="#9B9B9E" d="M932.284 903.895C935.407 905.858 934.905 906.067 936.315 909.454L936.259 909.403L935.871 910.413C933.146 912.475 934.752 925.864 935.198 929.533C934.39 929.399 932.007 929.161 931.905 928.331C931.15 922.207 931.349 909.308 932.284 903.895Z"/><path fill="#9B9B9E" d="M1554.33 904.419C1559.43 904.383 1569.87 903.109 1571.49 909.335C1573.68 917.689 1567.11 919.45 1561.19 920.74C1555.44 919.676 1563.1 931.804 1554.84 928.483C1553.82 928.075 1554.28 906.541 1554.33 904.419Z"/><path fill="#141413" d="M1559.85 908.883C1561.5 907.321 1564.07 907.279 1565.78 908.785C1567.48 910.291 1567.75 912.848 1566.4 914.676C1565.41 916.012 1563.75 916.677 1562.12 916.394C1560.48 916.111 1559.15 914.928 1558.67 913.338C1558.19 911.748 1558.65 910.024 1559.85 908.883Z"/><path fill="#9B9B9E" d="M1317.84 903.235C1318.14 903.321 1321.8 904.176 1322.01 904.564C1325.73 911.585 1328.04 920.828 1330.69 928.506C1330.9 929.092 1327.4 929.351 1327.02 928.952C1325.27 927.913 1325.12 925.737 1323.7 923.853C1322.62 923.919 1317.12 923.99 1316.54 924.248C1313.5 925.605 1315.2 931.313 1309.57 928.59C1309.44 928.21 1315.94 908.474 1316.6 906.617L1317.84 903.235Z"/><path fill="#141413" d="M1319.64 910.865C1322.15 913.615 1322.78 917.742 1322.06 921.308C1315.01 919.072 1317.2 918.601 1319.64 910.865Z"/><path fill="#9B9B9E" d="M1893.03 903.568C1893.33 903.618 1897.63 904.136 1897.79 904.441C1901.44 911.264 1903.14 920.025 1905.74 927.394C1906.59 929.801 1900.66 929.688 1900.51 926.659C1900.5 926.38 1899.27 923.82 1899.23 923.732C1897.03 923.852 1893.67 923.653 1891.65 924.341C1889.36 925.817 1890.79 930.092 1886.95 929.523C1883.67 929.036 1886.17 925.976 1886.89 923.505C1888.45 918.123 1890.48 912.502 1892.06 907.006L1893.03 903.568Z"/><path fill="#141413" d="M1895.26 910.671C1897.93 914.622 1898.43 917.078 1896.84 921.344C1890.79 918.599 1892.91 917.226 1895.26 910.671Z"/><path fill="#9B9B9E" d="M1027.78 903.522C1027.81 903.528 1029.58 903.87 1029.61 903.867C1029.94 903.887 1032.52 904.242 1032.7 904.523C1034.65 907.486 1035.21 911.502 1036.31 914.978C1037.5 919.369 1039.31 923.668 1040.62 927.994C1040.97 929.156 1038.08 929.274 1037.5 929.033C1035.84 928.347 1034.84 924.96 1034.19 923.567C1032.16 923.664 1028.12 923.542 1026.38 924.101C1025.37 924.427 1024.37 929.556 1021.9 929.293C1021.7 929.424 1020.4 929.147 1020.34 928.898C1019.61 925.974 1021.67 922.929 1022.52 919.644C1023.89 914.337 1026.02 908.82 1027.78 903.522Z"/><path fill="#141413" d="M1029.54 910.645C1032.36 913.261 1033.07 917.363 1032.03 920.977C1025.07 918.599 1027.55 918.337 1029.54 910.645Z"/><path fill="#9B9B9E" d="M1049.74 903.852C1051.36 903.939 1064.02 904.745 1060.95 912.444C1059.56 915.918 1055.56 908.856 1054.42 908.125C1052.07 906.607 1048.7 909.552 1048.35 912.589C1047.75 915.833 1047.43 920.928 1049.27 923.845C1051.26 927.385 1057.27 926.172 1057.51 922.545C1057.56 921.696 1057.2 920.875 1056.54 920.339C1055.94 919.89 1055.33 919.441 1054.73 918.992C1049.23 915.963 1061.47 916.744 1061.59 917.582C1063.98 934.51 1059.29 927.421 1057.09 928.207C1041.41 933.821 1038.45 913.296 1049.74 903.852Z"/><path fill="#9B9B9E" d="M901.624 903.368C907.022 906.258 901.115 909.626 897.191 914.637C899.906 918.938 902.88 923.532 905.315 927.92C905.591 929.396 903.583 929.474 902.986 929.477C898.277 929.5 896.98 918.894 893.428 919.729C892.593 921.383 890.546 928.835 890.711 928.717C886.074 932.667 886.636 922.172 886.989 920.458C887.852 916.266 885 906.436 888.889 904.191C893.746 905.175 889.912 912.054 892.4 913.875C893.206 913.497 900.227 904.924 901.624 903.368Z"/><path fill="#9B9B9E" d="M1909.66 903.232C1916.02 905.475 1913.54 904.71 1914.05 912.205C1914.5 916.034 1911.73 927.392 1919.42 925.712C1924.58 924.586 1920.24 908.469 1922.27 905.234C1923.34 903.521 1926.51 903.854 1926.69 906.945L1926.68 915.032C1926.68 918.382 1927.52 924.669 1924.4 927.421C1919.9 931.386 1910.82 930.142 1909.58 923.615C1908.71 919.081 1909 908.186 1909.66 903.232Z"/><path fill="#9B9B9E" d="M1602.55 903.968C1604.42 904.002 1616.27 903.481 1615.18 911.382C1615.06 912.27 1611.31 912.765 1610.67 910.601C1609.56 906.883 1603.72 906.61 1602.87 910.471C1603.87 915.107 1611.99 914.369 1614.65 918.338C1618.34 923.854 1614.83 926.516 1610.13 929.894C1607.04 929.485 1603.6 929.553 1600.89 927.532C1599.4 926.732 1596.16 921.368 1599.88 921.378C1603.39 921.387 1603.38 925.715 1607.35 925.983C1609.34 926.118 1611.32 924.321 1611.11 922.463C1610.28 918.08 1603.25 918.418 1600.44 915.533C1595.99 910.976 1598.89 907.722 1602.55 903.968Z"/><path fill="#9B9B9E" d="M909.864 904.185C914.914 904.206 920.38 904 925.334 904.444C925.826 904.488 926.942 906.686 925.817 907.392C923.657 908.747 919.909 907.9 917.418 908.076C914.487 907.986 914.178 910.653 914.565 913.097C915.2 917.107 925.33 911.757 924.219 917.01C923.665 919.629 917.81 917.466 915.108 918.997L913.709 919.804C917.049 932.623 923.193 921.172 926.374 927.024C926.306 928.645 924.99 929.239 923.502 929.222L909.957 929.157C909.937 920.901 909.727 912.402 909.864 904.185Z"/><path fill="#9B9B9E" d="M1688.04 904.123C1691.26 904.127 1702.98 902.955 1704.57 905.769C1703.77 910.62 1693.96 906.388 1693.11 908.65C1691.09 914.037 1693.91 915.611 1697.99 914.512C1702.99 913.161 1705.32 918.249 1699.01 918.244L1692.35 918.203C1693.47 930.535 1692.96 923.873 1703.49 925.932C1704.88 926.204 1704.92 929.159 1702.51 929.2C1697.71 929.281 1692.82 929.254 1687.98 929.282C1687.98 920.969 1687.91 912.42 1688.04 904.123Z"/><path fill="#9B9B9E" d="M1621.05 904.096C1623.54 904.095 1636.2 903.73 1636.67 904.668C1640.59 912.446 1623.44 903.327 1625.66 912.05C1626.74 916.321 1634.05 912.686 1634.61 914.435C1636.97 921.749 1629.53 914.13 1624.35 921.205C1629.33 930.724 1632.07 922.743 1637.01 925.917C1644.24 930.555 1620.79 929.228 1621.02 929.227L1621.05 904.096Z"/><path fill="#9B9B9E" d="M1954.97 904.138L1967.51 904.083C1968.8 904.087 1971.48 904.58 1970.83 906.489C1969.55 910.269 1960.45 905.792 1959.76 909.489C1957.91 919.289 1965.96 910.97 1969.53 916.492C1967.87 919.975 1963.65 916.722 1958.67 919.727C1958.86 920.537 1959.05 921.348 1959.23 922.16C1961.08 930.4 1967.98 922.688 1971.2 926.956C1971.36 928.595 1970 929.411 1968.5 929.398L1954.89 929.366C1954.85 921.07 1954.8 912.419 1954.97 904.138Z"/><path fill="#9B9B9E" d="M1067.07 904.346C1071.69 904.359 1076.47 904.173 1081.03 904.459C1081.97 904.518 1083.56 905.722 1082.82 906.729C1080.91 909.265 1075.79 907.253 1072.97 908.045C1071.22 908.467 1071.32 911.439 1071.86 913.033C1072.88 916.115 1084.32 911.923 1081.03 917.521C1080.49 918.43 1072.72 918.254 1070.81 918.456C1072.91 930.06 1071.13 923.638 1082.39 925.948C1083.56 926.187 1083.07 928.539 1082.65 928.668C1079.29 929.718 1070.21 929.213 1066.95 929.209C1066.98 921.151 1066.81 912.307 1067.07 904.346Z"/><path fill="#9B9B9E" d="M1848.25 903.973C1853.39 903.829 1859.32 904.566 1860.34 910.042C1861.05 913.819 1855.37 912.7 1854.76 909.172C1854.56 907.981 1850.38 907.166 1848.99 908.979C1846.4 912.368 1846.21 921.533 1849.55 924.809C1851.61 926.505 1853.04 925.822 1854.34 923.974C1867.48 912.352 1857.3 938.487 1845.83 927.547C1839.13 921.147 1841.43 910.494 1848.25 903.973Z"/><path fill="#9B9B9E" d="M1288.95 904.463C1295.38 904.164 1301.81 904.198 1308.23 904.564C1304.88 910.387 1301.76 915.792 1297.53 921.076C1291.24 928.935 1303.48 922.488 1305.9 926.853L1306.79 928.492C1300.88 929.374 1292.62 929.075 1286.41 929.106L1296.29 915.211C1297.99 912.847 1299.57 910.463 1301.23 908.067C1297.61 907.968 1290.76 909.45 1289.48 905.866L1288.95 904.463Z"/><path fill="#9B9B9E" d="M1536.82 903.992C1542.22 904.087 1547.9 903.892 1549.6 910.605C1549.84 911.57 1548.78 912.002 1548 912.051C1545.15 912.231 1544.48 908.883 1541.96 908.217C1540.84 907.953 1539.47 907.968 1538.43 908.639C1537.07 909.511 1536.36 911.473 1536.12 913.008C1536.15 916.48 1535.15 921.445 1537.71 924.288C1539.2 925.936 1541.09 926.726 1542.83 924.962C1550.14 916.678 1550.61 924.389 1547.62 926.575C1532.81 937.386 1524.45 915.588 1536.82 903.992Z"/><path fill="#9B9B9E" d="M1673.79 923.531C1675.21 918.571 1677.37 909.073 1679.76 904.801C1680.6 903.31 1684.8 903.035 1682.91 908.306C1681.96 911.096 1677.03 926.934 1676.18 927.99C1668.88 937.029 1664.23 905.73 1664.35 903.325C1671.03 905.587 1671.19 916.116 1673.79 923.531Z"/><path fill="#9B9B9E" d="M1222.53 904.384C1224.36 904.356 1237.09 904.17 1237.42 904.436C1243.41 909.507 1233.56 905.978 1233.13 909.944C1230.86 930.952 1235.7 922.736 1239.67 928.448C1235.37 929.243 1231.86 929.137 1227.5 929.141C1226.01 929.143 1222.16 929.448 1223.35 926.604C1224.16 924.89 1227.77 926.639 1228.06 924.415C1228.59 920.863 1228.03 916.409 1228.23 912.909C1228.78 903.534 1224.05 912.378 1222.53 904.384Z"/><path fill="#9B9B9E" d="M1755.34 904.219C1758.02 904.221 1770.6 903.711 1771.11 904.958C1773.81 911.974 1759.52 904.631 1759.83 910.926C1760.03 914.934 1759.95 915.696 1763.99 915.523C1768 915.351 1768.55 915.215 1770.69 918.379C1756.52 921.659 1761.67 914.699 1759.49 928.492C1759.14 930.237 1755.91 928.994 1755.84 928.437C1754.98 921.857 1755.38 910.653 1755.34 904.219Z"/><path fill="#9B9B9E" d="M1273.74 925.201C1272.95 919.309 1273.55 914.111 1272.65 908.504C1272.52 907.687 1269.28 908.165 1268.46 907.27C1267.56 906.837 1268.35 904.471 1269.02 904.516C1272.38 904.739 1282.32 902.481 1283.81 906.391L1283.25 907.274C1281.86 907.913 1280.89 907.795 1279.36 907.659L1278.25 907.554C1277.9 912.523 1277.39 920.308 1278.49 925.077C1278.77 926.3 1284.34 924.714 1283.22 928.001C1283.04 928.518 1282.48 928.877 1281.97 928.962C1279.61 928.991 1270.17 929.632 1268.56 928.601C1268.18 928.361 1267.94 927.959 1267.91 927.517C1267.75 925.424 1272.17 925.533 1273.74 925.201Z"/><path fill="#9B9B9E" d="M1273.74 925.201C1272.95 919.309 1273.55 914.111 1272.65 908.504C1272.52 907.687 1269.28 908.165 1268.46 907.27C1267.56 906.837 1268.35 904.471 1269.02 904.516C1272.38 904.739 1282.32 902.481 1283.81 906.391L1283.25 907.274C1281.86 907.913 1280.89 907.795 1279.36 907.659L1278.25 907.554C1276.99 906.699 1275.63 905.244 1274.2 906.184C1274.46 905.659 1274.22 922.411 1273.74 925.201Z"/><path fill="#9B9B9E" d="M1355.9 904.367C1358.36 904.274 1369.44 903.36 1371.11 904.963C1374.09 907.847 1366.63 908.363 1366.59 908.505C1365.49 912.686 1366.28 919.601 1366.11 923.938C1365.96 927.974 1371.82 923.332 1371.47 929.086C1368.09 929.161 1359.65 929.852 1357.01 928.778C1354.67 926.084 1360.99 925.771 1361.28 924.94C1361.9 923.198 1361.86 909.192 1361.29 908.812C1358.16 906.721 1356.85 909.849 1355.9 904.367Z"/><path fill="#9B9B9E" d="M1109.71 904.321C1115.65 904.156 1122.14 904.066 1128.04 904.521C1128.93 904.589 1129.51 906.662 1128.59 907.599C1127.35 908.855 1122.82 907.44 1122.53 909.048C1121.75 913.422 1122.21 919.612 1122.21 924.25L1122.21 924.5C1122.23 927.155 1122.13 930.875 1118.27 928.668C1116.29 927.538 1118.76 910.672 1117.15 908.862C1115.29 906.762 1110.82 910.97 1109.99 905.849L1109.71 904.321Z"/><path fill="#9B9B9E" d="M1332.31 904.402C1335.19 904.349 1350.42 904.006 1350.75 904.613C1354.09 910.866 1344.41 905.87 1344.37 909.958C1344.31 915.879 1344.36 919.538 1344.35 924.25C1344.35 925.303 1344.37 928.078 1343.67 928.571C1335.96 933.586 1341.97 910.122 1339.29 908.731C1334.9 906.45 1333.68 911.141 1332.31 904.402Z"/><path fill="#9B9B9E" d="M841.134 904.356C843.786 904.242 863.624 902.187 859.869 907.42C858.863 908.822 853.761 907.436 853.4 908.498C852.12 912.261 852.782 920.23 852.778 924.25C852.771 926.319 853.055 930.347 849.476 928.905C846.748 927.805 849.19 911.548 848.119 909.497C845.919 905.282 842.429 912.108 841.134 904.356Z"/><path fill="#9B9B9E" d="M1198.66 904.378C1202.24 904.246 1217.58 902.769 1218.54 906.116C1217.53 909.911 1211.92 906.819 1211.51 908.606C1210.51 912.907 1211.02 919.606 1211.02 924.25C1211.03 926.713 1211.26 930.784 1207.58 928.856C1205.07 926.08 1207.52 911.405 1206.5 909.423C1204.17 904.882 1200.42 911.964 1198.66 904.378Z"/><path fill="#9B9B9E" d="M1865.66 903.208C1871.31 905.397 1869.67 905.321 1869.83 911.941C1869.95 916.47 1869.83 921.074 1869.89 925.61C1873.29 925.84 1880.87 924.381 1882.18 927.788L1882.62 928.838C1876.43 929.505 1871.26 929.335 1865.05 929.373C1865.07 922.209 1864.59 909.746 1865.66 903.208Z"/><path fill="#9B9B9E" d="M2381.36 934.341C2385.03 934.033 2387.98 934.749 2391.08 934.21C2395.35 933.47 2395.73 944.037 2392.38 945.053C2391.25 945.295 2390.12 945.579 2388.99 945.851L2387.09 945.886C2386.4 945.066 2386.36 944.58 2385.44 944.308C2385 944.583 2384.9 944.969 2384.61 945.467L2381.66 945.73C2380.61 945.579 2380.3 945.699 2379.09 945.813L2378.91 944.853C2382.61 940.386 2379.63 940.37 2381.36 934.341Z"/><path fill="#141413" d="M2384.61 945.467C2382.95 935.92 2386.66 931.053 2387.09 945.886C2386.4 945.066 2386.36 944.58 2385.44 944.308C2385 944.583 2384.9 944.969 2384.61 945.467Z"/><path fill="#141413" d="M2388.99 945.851C2389.05 934.282 2390.4 933.155 2392.38 945.053C2391.25 945.295 2390.12 945.579 2388.99 945.851Z"/><path fill="#141413" d="M2378.91 944.853C2382.61 940.386 2379.63 940.37 2381.36 934.341C2382.17 938.72 2382.04 941.227 2381.66 945.73C2380.61 945.579 2380.3 945.699 2379.09 945.813L2378.91 944.853Z"/><path fill="#9B9B9E" d="M2436.25 777.632C2436.22 777.597 2437.6 778.823 2437.71 779.586C2438.17 783.046 2438.56 791.472 2437.57 794.7C2437.5 794.958 2435.95 795.131 2435.53 795.132C2433.32 795.139 2431.2 795.696 2428.9 796.001C2424.25 788.545 2425.71 782.505 2434.35 782.827C2434.66 782.838 2435.93 778.432 2436.25 777.632Z"/><path fill="#141413" d="M2431.15 784.686C2436.06 786.821 2435.01 788.552 2434.25 793.668C2428.71 791.562 2429.1 790.289 2431.15 784.686Z"/><path fill="#9B9B9E" d="M2370.22 1083.54C2375.14 1084.1 2381.54 1080.62 2381.72 1090.01C2381.76 1092.12 2380.91 1093.59 2379.4 1095.05C2378.67 1095.21 2373.51 1096.04 2373.36 1096.15C2372.76 1098.22 2373.72 1099.25 2371.75 1100.08C2368.86 1099.54 2370.07 1086.16 2370.22 1083.54Z"/><path fill="#141413" d="M2374.42 1086.76C2376.09 1086.03 2378.04 1086.73 2378.85 1088.36C2379.65 1089.99 2379.04 1091.97 2377.45 1092.86C2376.35 1093.47 2375.01 1093.43 2373.95 1092.75C2372.89 1092.07 2372.29 1090.87 2372.39 1089.61C2372.49 1088.36 2373.27 1087.26 2374.42 1086.76Z"/><path fill="#9B9B9E" d="M2447.69 930.083C2448.24 930.201 2449.4 930.16 2449.46 931.041C2449.75 935.533 2450.06 941.177 2449.25 945.551C2449.2 945.848 2447.33 946.143 2447.05 946.051C2445.14 945.886 2442.86 946.578 2441.13 946.947C2439.36 944.742 2437.79 942.936 2438.04 940.023C2438.64 933.15 2441.63 934.567 2445.48 934.183C2446.59 933.413 2447.16 931.286 2447.69 930.083Z"/><path fill="#141413" d="M2442.31 937.594C2443.32 936.953 2444.6 936.954 2445.61 937.596C2446.61 938.238 2447.16 939.405 2447 940.588C2446.84 941.771 2446.02 942.756 2444.88 943.113C2443.41 943.575 2441.82 942.876 2441.17 941.48C2440.52 940.083 2441.01 938.421 2442.31 937.594Z"/><path fill="#9B9B9E" d="M2464.53 1079.61C2465.28 1079.47 2465.02 1079.48 2465.4 1079.51C2465.71 1079.75 2466.11 1080.37 2466.09 1080.96C2465.96 1085.35 2466.93 1091.31 2465.47 1095.37C2465.37 1095.66 2461.26 1095.42 2460.63 1095.95C2460.42 1096.13 2457.7 1096.7 2457.91 1096.65C2455.49 1093.63 2453.05 1088.99 2455.7 1085.74C2459.7 1080.83 2460.57 1086.92 2464.53 1079.61Z"/><path fill="#141413" d="M2458.74 1085.22C2464.38 1087.06 2463.23 1087.81 2462.75 1093.75C2456.81 1092.29 2457.58 1091.39 2458.74 1085.22Z"/><path fill="#9B9B9E" d="M2340.86 934.177C2341.85 934.371 2343.65 934.819 2344.67 934.503C2351.79 932.311 2354.18 940.092 2350.71 945.538L2349.91 946.866C2348.89 946.797 2344.76 946.104 2344.46 946.326C2344.09 947.169 2344.25 949.066 2343.98 949.442C2342.58 951.385 2340.87 949.997 2340.86 948.005L2340.86 934.177Z"/><path fill="#141413" d="M2344.75 937.65C2345.73 937.015 2346.98 936.973 2348 937.541C2349.03 938.109 2349.65 939.194 2349.63 940.363C2349.62 941.532 2348.95 942.596 2347.91 943.131C2346.41 943.902 2344.57 943.359 2343.72 941.897C2342.88 940.434 2343.33 938.566 2344.75 937.65Z"/><path fill="#9B9B9E" d="M2450.86 1092.1C2449.49 1099.47 2441.14 1096.39 2440.13 1091.02C2438.38 1081.76 2452.15 1079.09 2451.75 1090.27L2450.86 1092.1Z"/><path fill="#141413" d="M2450.86 1092.1C2448.63 1092.79 2445.63 1094.7 2443.96 1092.29C2443.74 1089.39 2449.94 1090.33 2451.75 1090.27L2450.86 1092.1Z"/><path fill="#141413" d="M2445.6 1086.78C2445.94 1086.54 2446.18 1086.26 2446.57 1086.26C2446.99 1086.51 2446.97 1086.67 2447.3 1087.21C2446.72 1087.51 2446.47 1087.81 2445.88 1087.69C2445.69 1087.36 2445.8 1087.61 2445.6 1086.78Z"/><path fill="#9B9B9E" d="M2329.28 934.672C2331.35 933.669 2333.8 933.868 2335.68 935.193C2337.56 936.518 2338.57 938.759 2338.31 941.043C2338.06 943.328 2336.59 945.295 2334.47 946.178C2331.31 947.492 2327.69 946.058 2326.28 942.944C2324.88 939.829 2326.21 936.164 2329.28 934.672Z"/><path fill="#141413" d="M2330.26 937.548C2331.24 936.9 2332.5 936.852 2333.53 937.422C2334.55 937.992 2335.18 939.086 2335.15 940.261C2335.12 941.436 2334.44 942.499 2333.39 943.018C2331.89 943.754 2330.08 943.201 2329.25 941.754C2328.43 940.307 2328.86 938.466 2330.26 937.548Z"/><path fill="#9B9B9E" d="M2423.26 792.373C2421.65 795.072 2418.3 796.177 2415.4 794.966C2412.5 793.754 2410.94 790.595 2411.73 787.554C2412.52 784.514 2415.43 782.518 2418.55 782.873C2421.67 783.227 2424.06 785.824 2424.14 788.964C2424.18 790.162 2423.87 791.344 2423.26 792.373Z"/><path fill="#141413" d="M2424.14 788.964C2424.18 790.162 2423.87 791.344 2423.26 792.373C2421.67 792.491 2414.27 794.073 2415.2 789.923L2415.08 790.439C2417.34 787.845 2420.18 789.207 2424.14 788.964Z"/><path fill="#9B9B9E" d="M2345.2 1083.64C2348.4 1082.71 2351.78 1084.44 2352.89 1087.59C2354.01 1090.73 2352.47 1094.2 2349.4 1095.5C2347.24 1096.4 2344.76 1096.04 2342.95 1094.56C2341.15 1093.08 2340.31 1090.71 2340.78 1088.42C2341.25 1086.13 2342.95 1084.29 2345.2 1083.64Z"/><path fill="#141413" d="M2345.48 1086.76C2347.13 1085.98 2349.1 1086.67 2349.9 1088.31C2350.7 1089.95 2350.03 1091.93 2348.4 1092.75C2347.33 1093.29 2346.05 1093.21 2345.05 1092.54C2344.05 1091.87 2343.49 1090.72 2343.58 1089.52C2343.67 1088.33 2344.39 1087.27 2345.48 1086.76Z"/><path fill="#9B9B9E" d="M2370.84 786.838C2370.67 785.979 2370.32 784.486 2371.41 783.896C2379.28 779.625 2381.29 787.053 2380.49 793.619C2380.02 797.499 2363.96 796.182 2371.01 788.428L2370.84 786.838Z"/><path fill="#141413" d="M2370.84 786.838C2377.09 783.706 2379.86 787.386 2371.01 788.428L2370.84 786.838Z"/><path fill="#141413" d="M2374.56 791.048C2374.77 790.874 2375.38 790.215 2375.82 790.168C2375.94 790.623 2375.57 791.46 2375.49 791.752C2375.27 791.938 2374.76 792.531 2374.33 792.576C2374.19 792.136 2374.49 791.369 2374.56 791.048Z"/><path fill="#9B9B9E" d="M2434.01 943.981C2431.21 950.787 2420.23 943.74 2424.41 937.263C2428.79 930.451 2434.18 934.423 2435.73 940.676L2434.01 943.981Z"/><path fill="#141413" d="M2434.01 943.981C2422.28 943.255 2427.57 941.325 2435.73 940.676L2434.01 943.981Z"/><path fill="#141413" d="M2429.22 937.505C2429.7 937.392 2430.17 937.279 2430.65 937.166C2430.53 937.39 2429.91 937.718 2429.49 937.984C2429.24 938.015 2428.08 938.198 2427.81 938.153C2428.28 937.937 2428.75 937.721 2429.22 937.505Z"/><path fill="#9B9B9E" d="M2355.1 1083.2C2362.29 1084.3 2367.24 1080.67 2367.98 1087.99C2368.4 1092.15 2366.96 1101.5 2365.05 1092.5C2364.75 1091.07 2365.91 1087.81 2363.72 1087.49C2363.22 1088.44 2364.24 1090.03 2364.57 1090.7C2363.86 1092.37 2363.1 1094.93 2361.73 1096.01C2358.68 1095.33 2361.57 1086.16 2358.95 1086.46C2356.66 1088.35 2359.36 1094.15 2357.05 1095.8C2353.74 1096.12 2355.09 1085.77 2355.1 1083.2Z"/><path fill="#9B9B9E" d="M2414.84 1090.08C2408.31 1083 2421.87 1079.25 2422.74 1087.68L2421.1 1088.61C2428.06 1095.98 2414.1 1099.83 2413.22 1092.2L2414.84 1090.08Z"/><path fill="#141413" d="M2414.84 1090.08C2421.26 1091.67 2421.73 1094.84 2413.22 1092.2L2414.84 1090.08Z"/><path fill="#141413" d="M2421.1 1088.61C2415.57 1088.27 2413.81 1083.85 2421.35 1087.09L2422.74 1087.68L2421.1 1088.61Z"/><path fill="#9B9B9E" d="M2401.76 1082.42L2402.69 1082.65C2405.94 1083.46 2409.45 1084.63 2409.68 1088.65C2410.05 1093 2402.31 1089.71 2401.68 1091.42C2400.41 1094.84 2406.97 1093.28 2406.91 1093.29C2408.52 1092.54 2409.22 1093.18 2408.45 1093.99C2402.29 1100.48 2393.09 1091.55 2400.56 1083.71L2401.76 1082.42Z"/><path fill="#141413" d="M2402.74 1086.85C2403.74 1086.57 2403.82 1086.49 2404.75 1086.48C2404.95 1086.94 2404.76 1087.15 2404.61 1087.78C2403.9 1087.9 2402.96 1088.2 2402.26 1088C2402.17 1087.55 2402.46 1087.33 2402.74 1086.85Z"/><path fill="#9B9B9E" d="M2427.1 1089.61C2426.94 1089.13 2426.78 1088.65 2426.62 1088.17C2426.31 1087.1 2426.49 1085.95 2427.11 1085.03C2429.46 1081.56 2435.95 1082.3 2436.99 1086.13C2435.98 1088.85 2433.65 1084.78 2429.63 1086.29C2432.72 1089.66 2437.73 1088.18 2437.53 1092.66C2437.3 1097.42 2426.43 1097.75 2426.5 1092.22L2427.1 1089.61Z"/><path fill="#141413" d="M2427.1 1089.61C2428.97 1090.09 2432.72 1090.67 2433.76 1092.4C2432.94 1094.73 2428.48 1092.52 2426.5 1092.22L2427.1 1089.61Z"/><path fill="#9B9B9E" d="M2398.97 777.488C2402.6 780.095 2400.67 783.96 2402.97 783.035C2408.8 780.686 2410.58 790.571 2408.82 793.735C2405.54 799.636 2405.72 786.484 2405.71 786.29C2399.45 781.9 2401.98 793.65 2400.66 794.669C2395.93 798.321 2398.69 778.823 2398.97 777.488Z"/><path fill="#9B9B9E" d="M2409.01 934.465C2422.86 933.265 2421.33 934.062 2416.45 940.839C2415.82 941.709 2414.94 942.358 2415.25 943.401C2415.79 943.899 2418.75 943.759 2422.1 945.557C2420.57 945.877 2409.44 947.971 2409.56 944.954C2409.65 942.838 2415.02 939.434 2414.78 936.914C2413.79 936.218 2411.14 935.779 2409.01 934.465Z"/><path fill="#9B9B9E" d="M2357.64 782.497C2360.78 782.775 2365.81 782.327 2366.02 786.808C2364.4 789.298 2358.47 780.909 2358.29 789.512C2358.24 791.783 2359.35 792.416 2361.35 791.903C2369.8 789.471 2365.03 795.281 2362.74 795.46C2353.66 796.171 2353.65 789.014 2357.64 782.497Z"/><path fill="#9B9B9E" d="M2330.67 1082.46C2332.53 1082.88 2339.14 1083.97 2337.8 1087.28C2336.26 1088.2 2334.85 1086.57 2333.44 1086.08C2332.73 1085.84 2331.95 1085.91 2331.29 1086.27C2329.25 1087.37 2328.82 1093.71 2334.11 1093.53L2335.37 1093.51C2341.68 1088.24 2334.53 1101.2 2328.43 1094.57C2324.56 1090.36 2327.12 1086.12 2330.67 1082.46Z"/><path fill="#9B9B9E" d="M2359.21 930.609C2361.27 931.215 2360.16 931.762 2360.95 933.409C2361.47 934.497 2366.74 933.347 2364.96 935.805C2362.22 936.993 2358.74 934.387 2360.84 943.068C2361.01 943.779 2365.81 944.849 2367.39 945.589C2364.88 946.502 2362.22 947.786 2359.44 945.862C2355.87 943.395 2359.28 938.073 2356.33 936.446C2355.39 935.931 2354.22 936.278 2354.39 935.054C2355.86 933.374 2357.02 933.46 2359.21 930.609Z"/><path fill="#9B9B9E" d="M2386.54 782.533C2390.64 783.023 2393.66 782.465 2395.13 787.083C2391.44 787.747 2388.89 783.679 2387.63 786.206C2384.19 793.166 2389.36 792.968 2392.61 792.759C2392.81 792.459 2393.44 791.055 2394.19 791.149C2394.35 791.28 2394.5 791.412 2394.65 791.543C2392.06 800.995 2378.51 793.058 2385.08 784.612C2385.81 783.684 2385.51 784.002 2386.54 782.533Z"/><path fill="#9B9B9E" d="M2379.09 945.813C2376.64 946.23 2371.44 947.208 2369.29 945.828C2369.02 944.027 2375.6 943.738 2373.01 937.976C2371.73 935.137 2368.96 936.304 2369.54 934.717C2370.51 933.92 2374.86 933.608 2375.35 934.416C2378.08 938.89 2373.21 941.755 2378.91 944.853L2379.09 945.813Z"/><path fill="#9B9B9E" d="M2396.98 934.201C2404.72 934.005 2403.29 934.644 2403.73 942.022C2403.87 944.246 2406.43 943.952 2406.59 945.358C2406.15 946.086 2404.12 947.219 2403.36 947.751C2402.56 947.478 2397.87 946.211 2397.59 945.619C2396.79 943.901 2402.73 943.518 2400.83 938.436C2399.58 935.106 2398.56 936.92 2396.98 934.201Z"/><path fill="#9B9B9E" d="M2392.57 1083.8C2393.9 1083.58 2394.54 1083.24 2395.32 1084.43C2395.27 1084.74 2395.07 1085.68 2394.8 1085.72C2386.52 1086.88 2390.16 1086.5 2388.17 1096.65C2384.48 1094.07 2384.47 1086.18 2386.24 1084.08C2388.22 1083.71 2388.53 1084.97 2392.57 1083.8Z"/><path fill="#9B9B9E" d="M1458.13 916.501C1459.13 915.627 1460.52 915.374 1461.76 915.843C1462.99 916.311 1463.87 917.425 1464.04 918.737C1464.2 920.05 1463.63 921.346 1462.54 922.106C1460.99 923.196 1458.86 922.882 1457.69 921.392C1456.51 919.901 1456.71 917.754 1458.13 916.501Z"/><path fill="#DC6038" d="M650.74 871.125C657.902 871.417 656.228 873.861 649.778 874.158C650.083 873.142 650.404 872.131 650.74 871.125Z"/><path fill="#9B9B9E" d="M2374.35 930.189C2374.65 930.036 2374.95 929.882 2375.25 929.728C2375.4 930.035 2375.31 930.222 2375.25 930.909C2374.9 930.995 2374.54 931.08 2374.19 931.166C2374.18 930.772 2374.16 931.052 2374.35 930.189Z"/><path fill="#6B6866" d="M2402.05 930.135C2402.33 930.084 2402.62 930.033 2402.91 929.982C2402.97 930.368 2402.96 930.116 2402.91 930.804C2402.28 931.27 2402.53 931.144 2402.14 931.29L2402.06 931.225C2401.98 930.789 2402.01 931.101 2402.05 930.135Z"/></svg>